{
	"patcher" : 	{
		"fileversion" : 1,
		"appversion" : 		{
			"major" : 8,
			"minor" : 1,
			"revision" : 11,
			"architecture" : "x64",
			"modernui" : 1
		}
,
		"classnamespace" : "box",
		"rect" : [ 269.0, 237.0, 410.0, 631.0 ],
		"bglocked" : 0,
		"openinpresentation" : 0,
		"default_fontsize" : 12.0,
		"default_fontface" : 0,
		"default_fontname" : "Arial",
		"gridonopen" : 1,
		"gridsize" : [ 15.0, 15.0 ],
		"gridsnaponopen" : 1,
		"objectsnaponopen" : 1,
		"statusbarvisible" : 2,
		"toolbarvisible" : 1,
		"lefttoolbarpinned" : 0,
		"toptoolbarpinned" : 0,
		"righttoolbarpinned" : 0,
		"bottomtoolbarpinned" : 0,
		"toolbars_unpinned_last_save" : 0,
		"tallnewobj" : 0,
		"boxanimatetime" : 200,
		"enablehscroll" : 1,
		"enablevscroll" : 1,
		"devicewidth" : 0.0,
		"description" : "",
		"digest" : "",
		"tags" : "",
		"style" : "",
		"subpatcher_template" : "",
		"assistshowspatchername" : 0,
		"boxes" : [ 			{
				"box" : 				{
					"id" : "obj-3",
					"maxclass" : "newobj",
					"numinlets" : 0,
					"numoutlets" : 1,
					"outlettype" : [ "" ],
					"patching_rect" : [ 133.0, 102.0, 49.0, 22.0 ],
					"text" : "r where"
				}

			}
, 			{
				"box" : 				{
					"id" : "obj-2",
					"maxclass" : "newobj",
					"numinlets" : 0,
					"numoutlets" : 1,
					"outlettype" : [ "" ],
					"patching_rect" : [ 280.5, 291.0, 43.0, 22.0 ],
					"text" : "r reset"
				}

			}
, 			{
				"box" : 				{
					"id" : "obj-1",
					"maxclass" : "newobj",
					"numinlets" : 0,
					"numoutlets" : 1,
					"outlettype" : [ "" ],
					"patching_rect" : [ 84.5, 102.0, 45.0, 22.0 ],
					"text" : "r begin"
				}

			}
, 			{
				"box" : 				{
					"id" : "obj-41",
					"maxclass" : "newobj",
					"numinlets" : 0,
					"numoutlets" : 1,
					"outlettype" : [ "" ],
					"patching_rect" : [ 56.5, 33.0, 42.0, 22.0 ],
					"text" : "r state"
				}

			}
, 			{
				"box" : 				{
					"id" : "obj-40",
					"maxclass" : "newobj",
					"numinlets" : 0,
					"numoutlets" : 0,
					"patcher" : 					{
						"fileversion" : 1,
						"appversion" : 						{
							"major" : 8,
							"minor" : 1,
							"revision" : 11,
							"architecture" : "x64",
							"modernui" : 1
						}
,
						"classnamespace" : "box",
						"rect" : [ 831.0, 219.0, 432.0, 556.0 ],
						"bglocked" : 0,
						"openinpresentation" : 0,
						"default_fontsize" : 12.0,
						"default_fontface" : 0,
						"default_fontname" : "Arial",
						"gridonopen" : 1,
						"gridsize" : [ 15.0, 15.0 ],
						"gridsnaponopen" : 1,
						"objectsnaponopen" : 1,
						"statusbarvisible" : 2,
						"toolbarvisible" : 1,
						"lefttoolbarpinned" : 0,
						"toptoolbarpinned" : 0,
						"righttoolbarpinned" : 0,
						"bottomtoolbarpinned" : 0,
						"toolbars_unpinned_last_save" : 0,
						"tallnewobj" : 0,
						"boxanimatetime" : 200,
						"enablehscroll" : 1,
						"enablevscroll" : 1,
						"devicewidth" : 0.0,
						"description" : "",
						"digest" : "",
						"tags" : "",
						"style" : "",
						"subpatcher_template" : "",
						"assistshowspatchername" : 0,
						"boxes" : [ 							{
								"box" : 								{
									"id" : "obj-10",
									"maxclass" : "newobj",
									"numinlets" : 1,
									"numoutlets" : 0,
									"patching_rect" : [ 255.166666666666742, 127.0, 51.0, 22.0 ],
									"text" : "s where"
								}

							}
, 							{
								"box" : 								{
									"id" : "obj-32",
									"maxclass" : "toggle",
									"numinlets" : 1,
									"numoutlets" : 1,
									"outlettype" : [ "int" ],
									"parameter_enable" : 0,
									"patching_rect" : [ 226.666666666666742, 392.0, 24.0, 24.0 ]
								}

							}
, 							{
								"box" : 								{
									"id" : "obj-27",
									"maxclass" : "newobj",
									"numinlets" : 0,
									"numoutlets" : 1,
									"outlettype" : [ "" ],
									"patching_rect" : [ 226.666666666666742, 368.0, 43.0, 22.0 ],
									"text" : "r mute"
								}

							}
, 							{
								"box" : 								{
									"id" : "obj-25",
									"maxclass" : "newobj",
									"numinlets" : 2,
									"numoutlets" : 1,
									"outlettype" : [ "" ],
									"patching_rect" : [ 258.666666666666742, 425.0, 32.0, 22.0 ],
									"text" : "gate"
								}

							}
, 							{
								"box" : 								{
									"id" : "obj-24",
									"maxclass" : "newobj",
									"numinlets" : 1,
									"numoutlets" : 0,
									"patching_rect" : [ 124.666666666666686, 185.0, 45.0, 22.0 ],
									"text" : "s mute"
								}

							}
, 							{
								"box" : 								{
									"id" : "obj-23",
									"maxclass" : "newobj",
									"numinlets" : 3,
									"numoutlets" : 3,
									"outlettype" : [ "", "", "" ],
									"patching_rect" : [ 75.666666666666686, 159.0, 98.0, 22.0 ],
									"text" : "route delay mute"
								}

							}
, 							{
								"box" : 								{
									"id" : "obj-19",
									"maxclass" : "newobj",
									"numinlets" : 2,
									"numoutlets" : 1,
									"outlettype" : [ "int" ],
									"patching_rect" : [ 307.666666666666742, 310.0, 46.0, 22.0 ],
									"text" : "+ 1000"
								}

							}
, 							{
								"box" : 								{
									"id" : "obj-15",
									"maxclass" : "number",
									"numinlets" : 1,
									"numoutlets" : 2,
									"outlettype" : [ "", "bang" ],
									"parameter_enable" : 0,
									"patching_rect" : [ 308.166666666666742, 127.0, 50.0, 22.0 ]
								}

							}
, 							{
								"box" : 								{
									"id" : "obj-7",
									"maxclass" : "newobj",
									"numinlets" : 0,
									"numoutlets" : 1,
									"outlettype" : [ "" ],
									"patching_rect" : [ 307.666666666666742, 269.0, 45.0, 22.0 ],
									"text" : "r delay"
								}

							}
, 							{
								"box" : 								{
									"id" : "obj-3",
									"maxclass" : "newobj",
									"numinlets" : 1,
									"numoutlets" : 0,
									"patching_rect" : [ 75.666666666666686, 185.0, 47.0, 22.0 ],
									"text" : "s delay"
								}

							}
, 							{
								"box" : 								{
									"id" : "obj-35",
									"maxclass" : "newobj",
									"numinlets" : 3,
									"numoutlets" : 0,
									"patching_rect" : [ 258.666666666666742, 482.0, 59.0, 22.0 ],
									"text" : "noteout 1"
								}

							}
, 							{
								"box" : 								{
									"id" : "obj-33",
									"maxclass" : "newobj",
									"numinlets" : 3,
									"numoutlets" : 2,
									"outlettype" : [ "float", "float" ],
									"patching_rect" : [ 258.666666666666742, 449.0, 101.0, 22.0 ],
									"text" : "makenote 80 100"
								}

							}
, 							{
								"box" : 								{
									"id" : "obj-31",
									"maxclass" : "message",
									"numinlets" : 2,
									"numoutlets" : 1,
									"outlettype" : [ "" ],
									"patching_rect" : [ 271.666666666666742, 392.0, 29.5, 22.0 ],
									"text" : "55"
								}

							}
, 							{
								"box" : 								{
									"id" : "obj-26",
									"maxclass" : "number",
									"numinlets" : 1,
									"numoutlets" : 2,
									"outlettype" : [ "", "bang" ],
									"parameter_enable" : 0,
									"patching_rect" : [ 289.666666666666742, 344.0, 50.0, 22.0 ]
								}

							}
, 							{
								"box" : 								{
									"id" : "obj-22",
									"maxclass" : "newobj",
									"numinlets" : 2,
									"numoutlets" : 1,
									"outlettype" : [ "bang" ],
									"patching_rect" : [ 271.666666666666742, 368.0, 37.0, 22.0 ],
									"text" : "delay"
								}

							}
, 							{
								"box" : 								{
									"id" : "obj-21",
									"maxclass" : "newobj",
									"numinlets" : 1,
									"numoutlets" : 1,
									"outlettype" : [ "int" ],
									"patcher" : 									{
										"fileversion" : 1,
										"appversion" : 										{
											"major" : 8,
											"minor" : 1,
											"revision" : 11,
											"architecture" : "x64",
											"modernui" : 1
										}
,
										"classnamespace" : "box",
										"rect" : [ 59.0, 104.0, 214.0, 371.0 ],
										"bglocked" : 0,
										"openinpresentation" : 0,
										"default_fontsize" : 12.0,
										"default_fontface" : 0,
										"default_fontname" : "Arial",
										"gridonopen" : 1,
										"gridsize" : [ 15.0, 15.0 ],
										"gridsnaponopen" : 1,
										"objectsnaponopen" : 1,
										"statusbarvisible" : 2,
										"toolbarvisible" : 1,
										"lefttoolbarpinned" : 0,
										"toptoolbarpinned" : 0,
										"righttoolbarpinned" : 0,
										"bottomtoolbarpinned" : 0,
										"toolbars_unpinned_last_save" : 0,
										"tallnewobj" : 0,
										"boxanimatetime" : 200,
										"enablehscroll" : 1,
										"enablevscroll" : 1,
										"devicewidth" : 0.0,
										"description" : "",
										"digest" : "",
										"tags" : "",
										"style" : "",
										"subpatcher_template" : "",
										"assistshowspatchername" : 0,
										"boxes" : [ 											{
												"box" : 												{
													"id" : "obj-15",
													"maxclass" : "newobj",
													"numinlets" : 2,
													"numoutlets" : 1,
													"outlettype" : [ "int" ],
													"patching_rect" : [ 46.0, 76.0, 29.5, 22.0 ],
													"text" : "* 2"
												}

											}
, 											{
												"box" : 												{
													"id" : "obj-26",
													"maxclass" : "newobj",
													"numinlets" : 2,
													"numoutlets" : 1,
													"outlettype" : [ "float" ],
													"patching_rect" : [ 46.0, 100.0, 49.0, 22.0 ],
													"text" : "!/ 1000."
												}

											}
, 											{
												"box" : 												{
													"id" : "obj-23",
													"maxclass" : "newobj",
													"numinlets" : 1,
													"numoutlets" : 2,
													"outlettype" : [ "bang", "bang" ],
													"patching_rect" : [ 46.0, 196.0, 42.0, 22.0 ],
													"text" : "edge~"
												}

											}
, 											{
												"box" : 												{
													"id" : "obj-22",
													"maxclass" : "newobj",
													"numinlets" : 2,
													"numoutlets" : 1,
													"outlettype" : [ "signal" ],
													"patching_rect" : [ 46.0, 172.0, 36.0, 22.0 ],
													"text" : "<~ 0."
												}

											}
, 											{
												"box" : 												{
													"id" : "obj-11",
													"maxclass" : "newobj",
													"numinlets" : 1,
													"numoutlets" : 1,
													"outlettype" : [ "signal" ],
													"patching_rect" : [ 46.0, 148.0, 42.0, 22.0 ],
													"text" : "delta~"
												}

											}
, 											{
												"box" : 												{
													"id" : "obj-10",
													"maxclass" : "newobj",
													"numinlets" : 2,
													"numoutlets" : 1,
													"outlettype" : [ "signal" ],
													"patching_rect" : [ 46.0, 124.0, 52.0, 22.0 ],
													"text" : "phasor~"
												}

											}
, 											{
												"box" : 												{
													"comment" : "",
													"id" : "obj-19",
													"index" : 1,
													"maxclass" : "inlet",
													"numinlets" : 0,
													"numoutlets" : 1,
													"outlettype" : [ "int" ],
													"patching_rect" : [ 46.0, 35.0, 30.0, 30.0 ]
												}

											}
, 											{
												"box" : 												{
													"comment" : "",
													"id" : "obj-20",
													"index" : 1,
													"maxclass" : "outlet",
													"numinlets" : 1,
													"numoutlets" : 0,
													"patching_rect" : [ 120.5, 304.0, 30.0, 30.0 ]
												}

											}
, 											{
												"box" : 												{
													"id" : "obj-46",
													"maxclass" : "message",
													"numinlets" : 2,
													"numoutlets" : 1,
													"outlettype" : [ "" ],
													"patching_rect" : [ 46.0, 220.0, 31.0, 22.0 ],
													"text" : "time"
												}

											}
, 											{
												"box" : 												{
													"fontname" : "Arial",
													"fontsize" : 13.0,
													"id" : "obj-21",
													"maxclass" : "newobj",
													"numinlets" : 1,
													"numoutlets" : 3,
													"outlettype" : [ "int", "int", "int" ],
													"patching_rect" : [ 56.5, 270.5, 83.0, 23.0 ],
													"text" : "unpack 0 0 0"
												}

											}
, 											{
												"box" : 												{
													"id" : "obj-43",
													"maxclass" : "newobj",
													"numinlets" : 1,
													"numoutlets" : 3,
													"outlettype" : [ "list", "list", "int" ],
													"patching_rect" : [ 46.0, 246.5, 40.0, 22.0 ],
													"text" : "date"
												}

											}
 ],
										"lines" : [ 											{
												"patchline" : 												{
													"destination" : [ "obj-11", 0 ],
													"source" : [ "obj-10", 0 ]
												}

											}
, 											{
												"patchline" : 												{
													"destination" : [ "obj-22", 0 ],
													"source" : [ "obj-11", 0 ]
												}

											}
, 											{
												"patchline" : 												{
													"destination" : [ "obj-26", 0 ],
													"source" : [ "obj-15", 0 ]
												}

											}
, 											{
												"patchline" : 												{
													"destination" : [ "obj-15", 0 ],
													"source" : [ "obj-19", 0 ]
												}

											}
, 											{
												"patchline" : 												{
													"destination" : [ "obj-20", 0 ],
													"source" : [ "obj-21", 2 ]
												}

											}
, 											{
												"patchline" : 												{
													"destination" : [ "obj-23", 0 ],
													"source" : [ "obj-22", 0 ]
												}

											}
, 											{
												"patchline" : 												{
													"destination" : [ "obj-46", 0 ],
													"source" : [ "obj-23", 0 ]
												}

											}
, 											{
												"patchline" : 												{
													"destination" : [ "obj-10", 0 ],
													"source" : [ "obj-26", 0 ]
												}

											}
, 											{
												"patchline" : 												{
													"destination" : [ "obj-21", 0 ],
													"source" : [ "obj-43", 1 ]
												}

											}
, 											{
												"patchline" : 												{
													"destination" : [ "obj-43", 0 ],
													"source" : [ "obj-46", 0 ]
												}

											}
 ]
									}
,
									"patching_rect" : [ 271.666666666666742, 211.0, 46.0, 22.0 ],
									"saved_object_attributes" : 									{
										"description" : "",
										"digest" : "",
										"globalpatchername" : "",
										"tags" : ""
									}
,
									"text" : "p clock"
								}

							}
, 							{
								"box" : 								{
									"id" : "obj-17",
									"maxclass" : "newobj",
									"numinlets" : 2,
									"numoutlets" : 2,
									"outlettype" : [ "bang", "" ],
									"patching_rect" : [ 271.666666666666742, 310.0, 34.0, 22.0 ],
									"text" : "sel 0"
								}

							}
, 							{
								"box" : 								{
									"id" : "obj-16",
									"maxclass" : "newobj",
									"numinlets" : 2,
									"numoutlets" : 1,
									"outlettype" : [ "int" ],
									"patching_rect" : [ 271.666666666666742, 269.0, 29.5, 22.0 ],
									"text" : "<="
								}

							}
, 							{
								"box" : 								{
									"id" : "obj-13",
									"maxclass" : "number",
									"numinlets" : 1,
									"numoutlets" : 2,
									"outlettype" : [ "", "bang" ],
									"parameter_enable" : 0,
									"patching_rect" : [ 318.666666666666742, 235.0, 50.0, 22.0 ]
								}

							}
, 							{
								"box" : 								{
									"id" : "obj-9",
									"maxclass" : "newobj",
									"numinlets" : 1,
									"numoutlets" : 2,
									"outlettype" : [ "bang", "int" ],
									"patching_rect" : [ 308.166666666666742, 151.0, 29.5, 22.0 ],
									"text" : "t b i"
								}

							}
, 							{
								"box" : 								{
									"fontname" : "Arial",
									"fontsize" : 13.0,
									"id" : "obj-18",
									"maxclass" : "number",
									"numinlets" : 1,
									"numoutlets" : 2,
									"outlettype" : [ "", "bang" ],
									"parameter_enable" : 0,
									"patching_rect" : [ 271.666666666666742, 235.0, 45.0, 23.0 ]
								}

							}
, 							{
								"box" : 								{
									"id" : "obj-14",
									"maxclass" : "toggle",
									"numinlets" : 1,
									"numoutlets" : 1,
									"outlettype" : [ "int" ],
									"parameter_enable" : 0,
									"patching_rect" : [ 271.666666666666742, 185.0, 24.0, 24.0 ]
								}

							}
, 							{
								"box" : 								{
									"id" : "obj-8",
									"maxclass" : "newobj",
									"numinlets" : 1,
									"numoutlets" : 0,
									"patching_rect" : [ 114.166666666666686, 127.0, 47.0, 22.0 ],
									"text" : "s begin"
								}

							}
, 							{
								"box" : 								{
									"id" : "obj-6",
									"maxclass" : "newobj",
									"numinlets" : 1,
									"numoutlets" : 0,
									"patching_rect" : [ 209.166666666666686, 127.0, 45.0, 22.0 ],
									"text" : "s reset"
								}

							}
, 							{
								"box" : 								{
									"id" : "obj-5",
									"maxclass" : "newobj",
									"numinlets" : 1,
									"numoutlets" : 0,
									"patching_rect" : [ 163.166666666666686, 127.0, 44.0, 22.0 ],
									"text" : "s state"
								}

							}
, 							{
								"box" : 								{
									"id" : "obj-4",
									"maxclass" : "newobj",
									"numinlets" : 6,
									"numoutlets" : 6,
									"outlettype" : [ "", "", "", "", "", "" ],
									"patching_rect" : [ 114.166666666666686, 93.0, 192.0, 22.0 ],
									"text" : "route begin state reset where sync"
								}

							}
, 							{
								"box" : 								{
									"id" : "obj-2",
									"maxclass" : "newobj",
									"numinlets" : 7,
									"numoutlets" : 7,
									"outlettype" : [ "", "", "", "", "", "", "" ],
									"patching_rect" : [ 37.166666666666686, 59.0, 96.0, 22.0 ],
									"text" : "route 0 1 2 3 4 5"
								}

							}
, 							{
								"box" : 								{
									"id" : "obj-1",
									"maxclass" : "newobj",
									"numinlets" : 1,
									"numoutlets" : 1,
									"outlettype" : [ "" ],
									"patching_rect" : [ 37.166666666666686, 35.0, 96.0, 22.0 ],
									"text" : "mxj net.maxhole"
								}

							}
 ],
						"lines" : [ 							{
								"patchline" : 								{
									"destination" : [ "obj-2", 0 ],
									"source" : [ "obj-1", 0 ]
								}

							}
, 							{
								"patchline" : 								{
									"destination" : [ "obj-16", 1 ],
									"source" : [ "obj-13", 0 ]
								}

							}
, 							{
								"patchline" : 								{
									"destination" : [ "obj-21", 0 ],
									"source" : [ "obj-14", 0 ]
								}

							}
, 							{
								"patchline" : 								{
									"destination" : [ "obj-9", 0 ],
									"source" : [ "obj-15", 0 ]
								}

							}
, 							{
								"patchline" : 								{
									"destination" : [ "obj-14", 0 ],
									"midpoints" : [ 281.166666666666742, 302.0, 260.166666666666742, 302.0, 260.166666666666742, 174.0, 281.166666666666742, 174.0 ],
									"order" : 1,
									"source" : [ "obj-16", 0 ]
								}

							}
, 							{
								"patchline" : 								{
									"destination" : [ "obj-17", 0 ],
									"order" : 0,
									"source" : [ "obj-16", 0 ]
								}

							}
, 							{
								"patchline" : 								{
									"destination" : [ "obj-22", 0 ],
									"source" : [ "obj-17", 0 ]
								}

							}
, 							{
								"patchline" : 								{
									"destination" : [ "obj-16", 0 ],
									"source" : [ "obj-18", 0 ]
								}

							}
, 							{
								"patchline" : 								{
									"destination" : [ "obj-26", 0 ],
									"source" : [ "obj-19", 0 ]
								}

							}
, 							{
								"patchline" : 								{
									"destination" : [ "obj-23", 0 ],
									"source" : [ "obj-2", 3 ]
								}

							}
, 							{
								"patchline" : 								{
									"destination" : [ "obj-4", 0 ],
									"source" : [ "obj-2", 6 ]
								}

							}
, 							{
								"patchline" : 								{
									"destination" : [ "obj-18", 0 ],
									"source" : [ "obj-21", 0 ]
								}

							}
, 							{
								"patchline" : 								{
									"destination" : [ "obj-31", 0 ],
									"source" : [ "obj-22", 0 ]
								}

							}
, 							{
								"patchline" : 								{
									"destination" : [ "obj-24", 0 ],
									"source" : [ "obj-23", 1 ]
								}

							}
, 							{
								"patchline" : 								{
									"destination" : [ "obj-3", 0 ],
									"source" : [ "obj-23", 0 ]
								}

							}
, 							{
								"patchline" : 								{
									"destination" : [ "obj-33", 0 ],
									"source" : [ "obj-25", 0 ]
								}

							}
, 							{
								"patchline" : 								{
									"destination" : [ "obj-22", 1 ],
									"source" : [ "obj-26", 0 ]
								}

							}
, 							{
								"patchline" : 								{
									"destination" : [ "obj-32", 0 ],
									"source" : [ "obj-27", 0 ]
								}

							}
, 							{
								"patchline" : 								{
									"destination" : [ "obj-25", 1 ],
									"source" : [ "obj-31", 0 ]
								}

							}
, 							{
								"patchline" : 								{
									"destination" : [ "obj-25", 0 ],
									"source" : [ "obj-32", 0 ]
								}

							}
, 							{
								"patchline" : 								{
									"destination" : [ "obj-35", 1 ],
									"source" : [ "obj-33", 1 ]
								}

							}
, 							{
								"patchline" : 								{
									"destination" : [ "obj-35", 0 ],
									"source" : [ "obj-33", 0 ]
								}

							}
, 							{
								"patchline" : 								{
									"destination" : [ "obj-10", 0 ],
									"source" : [ "obj-4", 3 ]
								}

							}
, 							{
								"patchline" : 								{
									"destination" : [ "obj-15", 0 ],
									"source" : [ "obj-4", 4 ]
								}

							}
, 							{
								"patchline" : 								{
									"destination" : [ "obj-5", 0 ],
									"source" : [ "obj-4", 1 ]
								}

							}
, 							{
								"patchline" : 								{
									"destination" : [ "obj-6", 0 ],
									"source" : [ "obj-4", 2 ]
								}

							}
, 							{
								"patchline" : 								{
									"destination" : [ "obj-8", 0 ],
									"source" : [ "obj-4", 0 ]
								}

							}
, 							{
								"patchline" : 								{
									"destination" : [ "obj-19", 0 ],
									"source" : [ "obj-7", 0 ]
								}

							}
, 							{
								"patchline" : 								{
									"destination" : [ "obj-13", 0 ],
									"source" : [ "obj-9", 1 ]
								}

							}
, 							{
								"patchline" : 								{
									"destination" : [ "obj-14", 0 ],
									"source" : [ "obj-9", 0 ]
								}

							}
 ],
						"styles" : [ 							{
								"name" : "ksliderWhite",
								"default" : 								{
									"color" : [ 1.0, 1.0, 1.0, 1.0 ]
								}
,
								"parentstyle" : "",
								"multi" : 0
							}
 ]
					}
,
					"patching_rect" : [ 280.5, 57.0, 41.0, 22.0 ],
					"saved_object_attributes" : 					{
						"description" : "",
						"digest" : "",
						"globalpatchername" : "",
						"tags" : ""
					}
,
					"text" : "p hole"
				}

			}
, 			{
				"box" : 				{
					"id" : "obj-39",
					"maxclass" : "newobj",
					"numinlets" : 2,
					"numoutlets" : 2,
					"outlettype" : [ "", "" ],
					"patching_rect" : [ 82.166666666666671, 488.0, 66.0, 22.0 ],
					"text" : "route bang"
				}

			}
, 			{
				"box" : 				{
					"id" : "obj-30",
					"maxclass" : "comment",
					"numinlets" : 1,
					"numoutlets" : 0,
					"patching_rect" : [ 291.833333333333371, 375.0, 72.0, 20.0 ],
					"text" : "<stop piece"
				}

			}
, 			{
				"box" : 				{
					"id" : "obj-28",
					"linecount" : 2,
					"maxclass" : "comment",
					"numinlets" : 1,
					"numoutlets" : 0,
					"patching_rect" : [ 168.0, 140.0, 111.0, 33.0 ],
					"text" : "<select which note to start from"
				}

			}
, 			{
				"box" : 				{
					"id" : "obj-25",
					"maxclass" : "number",
					"numinlets" : 1,
					"numoutlets" : 2,
					"outlettype" : [ "", "bang" ],
					"parameter_enable" : 0,
					"patching_rect" : [ 116.0, 140.0, 50.0, 22.0 ]
				}

			}
, 			{
				"box" : 				{
					"id" : "obj-16",
					"maxclass" : "newobj",
					"numinlets" : 1,
					"numoutlets" : 1,
					"outlettype" : [ "" ],
					"patcher" : 					{
						"fileversion" : 1,
						"appversion" : 						{
							"major" : 8,
							"minor" : 1,
							"revision" : 11,
							"architecture" : "x64",
							"modernui" : 1
						}
,
						"classnamespace" : "box",
						"rect" : [ 241.0, 331.0, 363.0, 365.0 ],
						"bglocked" : 0,
						"openinpresentation" : 0,
						"default_fontsize" : 12.0,
						"default_fontface" : 0,
						"default_fontname" : "Arial",
						"gridonopen" : 1,
						"gridsize" : [ 15.0, 15.0 ],
						"gridsnaponopen" : 1,
						"objectsnaponopen" : 1,
						"statusbarvisible" : 2,
						"toolbarvisible" : 1,
						"lefttoolbarpinned" : 0,
						"toptoolbarpinned" : 0,
						"righttoolbarpinned" : 0,
						"bottomtoolbarpinned" : 0,
						"toolbars_unpinned_last_save" : 0,
						"tallnewobj" : 0,
						"boxanimatetime" : 200,
						"enablehscroll" : 1,
						"enablevscroll" : 1,
						"devicewidth" : 0.0,
						"description" : "",
						"digest" : "",
						"tags" : "",
						"style" : "",
						"subpatcher_template" : "",
						"assistshowspatchername" : 0,
						"visible" : 1,
						"boxes" : [ 							{
								"box" : 								{
									"id" : "obj-4",
									"linecount" : 4,
									"maxclass" : "newobj",
									"numinlets" : 1,
									"numoutlets" : 1,
									"outlettype" : [ "" ],
									"patching_rect" : [ 83.0, 111.0, 106.0, 62.0 ],
									"text" : "sprintf set url http://127.0.0.1:5000/data?var1=%s&var2=3"
								}

							}
, 							{
								"box" : 								{
									"id" : "obj-10",
									"maxclass" : "comment",
									"numinlets" : 1,
									"numoutlets" : 0,
									"patching_rect" : [ 83.0, 42.0, 90.0, 20.0 ],
									"text" : "<selected state"
								}

							}
, 							{
								"box" : 								{
									"comment" : "",
									"id" : "obj-6",
									"index" : 1,
									"maxclass" : "outlet",
									"numinlets" : 1,
									"numoutlets" : 0,
									"patching_rect" : [ 51.0, 292.0, 30.0, 30.0 ]
								}

							}
, 							{
								"box" : 								{
									"comment" : "",
									"id" : "obj-3",
									"index" : 1,
									"maxclass" : "inlet",
									"numinlets" : 0,
									"numoutlets" : 1,
									"outlettype" : [ "" ],
									"patching_rect" : [ 51.0, 37.0, 30.0, 30.0 ]
								}

							}
, 							{
								"box" : 								{
									"id" : "obj-48",
									"linecount" : 4,
									"maxclass" : "comment",
									"numinlets" : 1,
									"numoutlets" : 0,
									"patching_rect" : [ 201.5, 104.25, 116.0, 60.0 ],
									"text" : "hit api to run infection model and return data points for selected state"
								}

							}
, 							{
								"box" : 								{
									"id" : "obj-31",
									"maxclass" : "newobj",
									"numinlets" : 1,
									"numoutlets" : 1,
									"outlettype" : [ "" ],
									"patching_rect" : [ 51.0, 233.0, 105.0, 22.0 ],
									"text" : "dict.unpack body :"
								}

							}
, 							{
								"box" : 								{
									"id" : "obj-30",
									"maxclass" : "button",
									"numinlets" : 1,
									"numoutlets" : 1,
									"outlettype" : [ "bang" ],
									"parameter_enable" : 0,
									"patching_rect" : [ 51.0, 111.0, 24.0, 24.0 ]
								}

							}
, 							{
								"box" : 								{
									"id" : "obj-27",
									"maxclass" : "newobj",
									"numinlets" : 1,
									"numoutlets" : 2,
									"outlettype" : [ "dictionary", "" ],
									"patching_rect" : [ 51.0, 209.0, 45.0, 22.0 ],
									"text" : "maxurl"
								}

							}
, 							{
								"box" : 								{
									"data" : 									{
										"http_method" : "get",
										"url" : "http://127.0.0.1:5000/data?var1=california&var2=1",
										"response_dict" : "data1",
										"parse_type" : "json"
									}
,
									"fontname" : "Arial",
									"fontsize" : 13.0,
									"id" : "obj-35",
									"maxclass" : "newobj",
									"numinlets" : 2,
									"numoutlets" : 4,
									"outlettype" : [ "dictionary", "", "", "" ],
									"patching_rect" : [ 51.0, 184.0, 117.0, 23.0 ],
									"saved_object_attributes" : 									{
										"embed" : 1,
										"parameter_enable" : 0,
										"parameter_mappable" : 0
									}
,
									"text" : "dict api @embed 1"
								}

							}
, 							{
								"box" : 								{
									"angle" : 270.0,
									"background" : 1,
									"bgcolor" : [ 0.8, 0.8, 0.8, 0.0 ],
									"border" : 1,
									"bordercolor" : [ 0.482352941176471, 0.482352941176471, 0.482352941176471, 1.0 ],
									"id" : "obj-9",
									"maxclass" : "panel",
									"mode" : 0,
									"numinlets" : 1,
									"numoutlets" : 0,
									"patching_rect" : [ 41.5, 104.25, 276.0, 158.75 ],
									"proportion" : 0.5,
									"rounded" : 20
								}

							}
 ],
						"lines" : [ 							{
								"patchline" : 								{
									"destination" : [ "obj-31", 0 ],
									"source" : [ "obj-27", 0 ]
								}

							}
, 							{
								"patchline" : 								{
									"destination" : [ "obj-30", 0 ],
									"order" : 1,
									"source" : [ "obj-3", 0 ]
								}

							}
, 							{
								"patchline" : 								{
									"destination" : [ "obj-4", 0 ],
									"order" : 0,
									"source" : [ "obj-3", 0 ]
								}

							}
, 							{
								"patchline" : 								{
									"destination" : [ "obj-35", 0 ],
									"source" : [ "obj-30", 0 ]
								}

							}
, 							{
								"patchline" : 								{
									"destination" : [ "obj-6", 0 ],
									"source" : [ "obj-31", 0 ]
								}

							}
, 							{
								"patchline" : 								{
									"destination" : [ "obj-27", 0 ],
									"source" : [ "obj-35", 0 ]
								}

							}
, 							{
								"patchline" : 								{
									"destination" : [ "obj-35", 0 ],
									"source" : [ "obj-4", 0 ]
								}

							}
 ],
						"styles" : [ 							{
								"name" : "ksliderWhite",
								"default" : 								{
									"color" : [ 1, 1, 1, 1 ]
								}
,
								"parentstyle" : "",
								"multi" : 0
							}
, 							{
								"name" : "newobjBlue-1",
								"default" : 								{
									"accentcolor" : [ 0.317647, 0.654902, 0.976471, 1 ]
								}
,
								"parentstyle" : "",
								"multi" : 0
							}
, 							{
								"name" : "newobjGreen-1",
								"default" : 								{
									"accentcolor" : [ 0, 0.533333, 0.168627, 1 ]
								}
,
								"parentstyle" : "",
								"multi" : 0
							}
, 							{
								"name" : "numberGold-1",
								"default" : 								{
									"accentcolor" : [ 0.764706, 0.592157, 0.101961, 1 ]
								}
,
								"parentstyle" : "",
								"multi" : 0
							}
 ]
					}
,
					"patching_rect" : [ 56.5, 57.0, 58.0, 22.0 ],
					"saved_object_attributes" : 					{
						"description" : "",
						"digest" : "",
						"globalpatchername" : "",
						"tags" : ""
					}
,
					"text" : "p data"
				}

			}
, 			{
				"box" : 				{
					"id" : "obj-88",
					"maxclass" : "message",
					"numinlets" : 2,
					"numoutlets" : 1,
					"outlettype" : [ "" ],
					"patching_rect" : [ 258.833333333333371, 375.0, 31.0, 22.0 ],
					"text" : "stop"
				}

			}
, 			{
				"box" : 				{
					"id" : "obj-86",
					"maxclass" : "newobj",
					"numinlets" : 1,
					"numoutlets" : 0,
					"patching_rect" : [ 47.0, 419.5, 32.0, 22.0 ],
					"text" : "print"
				}

			}
, 			{
				"box" : 				{
					"id" : "obj-80",
					"maxclass" : "message",
					"numinlets" : 2,
					"numoutlets" : 1,
					"outlettype" : [ "" ],
					"patching_rect" : [ 82.166666666666671, 456.5, 207.666666666666686, 22.0 ],
					"text" : "bang"
				}

			}
, 			{
				"box" : 				{
					"id" : "obj-69",
					"maxclass" : "newobj",
					"numinlets" : 2,
					"numoutlets" : 1,
					"outlettype" : [ "" ],
					"patching_rect" : [ 82.166666666666671, 419.5, 31.0, 22.0 ],
					"text" : "pipe"
				}

			}
, 			{
				"box" : 				{
					"id" : "obj-65",
					"maxclass" : "newobj",
					"numinlets" : 4,
					"numoutlets" : 4,
					"outlettype" : [ "", "", "", "" ],
					"patching_rect" : [ 82.166666666666671, 375.0, 175.0, 22.0 ],
					"text" : "route delay demoNotes stream"
				}

			}
, 			{
				"box" : 				{
					"id" : "obj-60",
					"maxclass" : "newobj",
					"numinlets" : 1,
					"numoutlets" : 1,
					"outlettype" : [ "" ],
					"patching_rect" : [ 154.5, 291.0, 107.0, 22.0 ],
					"text" : "sprintf symout %ld"
				}

			}
, 			{
				"box" : 				{
					"id" : "obj-52",
					"maxclass" : "newobj",
					"numinlets" : 2,
					"numoutlets" : 2,
					"outlettype" : [ "", "" ],
					"patching_rect" : [ 82.166666666666671, 327.0, 36.0, 22.0 ],
					"text" : "route"
				}

			}
, 			{
				"box" : 				{
					"id" : "obj-37",
					"maxclass" : "newobj",
					"numinlets" : 1,
					"numoutlets" : 1,
					"outlettype" : [ "" ],
					"patching_rect" : [ 82.166666666666671, 351.0, 47.0, 22.0 ],
					"text" : "dict.iter"
				}

			}
, 			{
				"box" : 				{
					"id" : "obj-22",
					"maxclass" : "button",
					"numinlets" : 1,
					"numoutlets" : 1,
					"outlettype" : [ "bang" ],
					"parameter_enable" : 0,
					"patching_rect" : [ 84.5, 140.0, 24.0, 24.0 ]
				}

			}
, 			{
				"box" : 				{
					"id" : "obj-4",
					"maxclass" : "newobj",
					"numinlets" : 5,
					"numoutlets" : 4,
					"outlettype" : [ "int", "", "", "int" ],
					"patching_rect" : [ 84.5, 199.0, 61.0, 22.0 ],
					"text" : "counter"
				}

			}
, 			{
				"box" : 				{
					"id" : "obj-58",
					"maxclass" : "number",
					"numinlets" : 1,
					"numoutlets" : 2,
					"outlettype" : [ "", "bang" ],
					"parameter_enable" : 0,
					"patching_rect" : [ 84.5, 226.0, 50.0, 22.0 ]
				}

			}
, 			{
				"box" : 				{
					"id" : "obj-51",
					"maxclass" : "message",
					"numinlets" : 2,
					"numoutlets" : 1,
					"outlettype" : [ "" ],
					"patching_rect" : [ 84.5, 262.0, 42.0, 22.0 ],
					"text" : "get $1"
				}

			}
, 			{
				"box" : 				{
					"id" : "obj-45",
					"maxclass" : "newobj",
					"numinlets" : 2,
					"numoutlets" : 4,
					"outlettype" : [ "dictionary", "", "", "" ],
					"patching_rect" : [ 56.5, 291.0, 96.0, 22.0 ],
					"saved_object_attributes" : 					{
						"embed" : 0,
						"parameter_enable" : 0,
						"parameter_mappable" : 0
					}
,
					"text" : "dict weathering2"
				}

			}
, 			{
				"box" : 				{
					"id" : "obj-8",
					"maxclass" : "newobj",
					"numinlets" : 1,
					"numoutlets" : 0,
					"patcher" : 					{
						"fileversion" : 1,
						"appversion" : 						{
							"major" : 8,
							"minor" : 1,
							"revision" : 11,
							"architecture" : "x64",
							"modernui" : 1
						}
,
						"classnamespace" : "box",
						"rect" : [ 512.0, 504.0, 475.0, 336.0 ],
						"bglocked" : 0,
						"openinpresentation" : 0,
						"default_fontsize" : 12.0,
						"default_fontface" : 0,
						"default_fontname" : "Arial",
						"gridonopen" : 1,
						"gridsize" : [ 15.0, 15.0 ],
						"gridsnaponopen" : 1,
						"objectsnaponopen" : 1,
						"statusbarvisible" : 2,
						"toolbarvisible" : 1,
						"lefttoolbarpinned" : 0,
						"toptoolbarpinned" : 0,
						"righttoolbarpinned" : 0,
						"bottomtoolbarpinned" : 0,
						"toolbars_unpinned_last_save" : 0,
						"tallnewobj" : 0,
						"boxanimatetime" : 200,
						"enablehscroll" : 1,
						"enablevscroll" : 1,
						"devicewidth" : 0.0,
						"description" : "",
						"digest" : "",
						"tags" : "",
						"style" : "",
						"subpatcher_template" : "",
						"assistshowspatchername" : 0,
						"boxes" : [ 							{
								"box" : 								{
									"id" : "obj-17",
									"maxclass" : "newobj",
									"numinlets" : 2,
									"numoutlets" : 0,
									"patcher" : 									{
										"fileversion" : 1,
										"appversion" : 										{
											"major" : 8,
											"minor" : 1,
											"revision" : 11,
											"architecture" : "x64",
											"modernui" : 1
										}
,
										"classnamespace" : "box",
										"rect" : [ 545.0, 297.0, 338.0, 348.0 ],
										"bglocked" : 0,
										"openinpresentation" : 0,
										"default_fontsize" : 12.0,
										"default_fontface" : 0,
										"default_fontname" : "Arial",
										"gridonopen" : 1,
										"gridsize" : [ 15.0, 15.0 ],
										"gridsnaponopen" : 1,
										"objectsnaponopen" : 1,
										"statusbarvisible" : 2,
										"toolbarvisible" : 1,
										"lefttoolbarpinned" : 0,
										"toptoolbarpinned" : 0,
										"righttoolbarpinned" : 0,
										"bottomtoolbarpinned" : 0,
										"toolbars_unpinned_last_save" : 0,
										"tallnewobj" : 0,
										"boxanimatetime" : 200,
										"enablehscroll" : 1,
										"enablevscroll" : 1,
										"devicewidth" : 0.0,
										"description" : "",
										"digest" : "",
										"tags" : "",
										"style" : "",
										"subpatcher_template" : "",
										"assistshowspatchername" : 0,
										"boxes" : [ 											{
												"box" : 												{
													"comment" : "",
													"id" : "obj-2",
													"index" : 2,
													"maxclass" : "inlet",
													"numinlets" : 0,
													"numoutlets" : 1,
													"outlettype" : [ "" ],
													"patching_rect" : [ 79.0, 37.0, 30.0, 30.0 ]
												}

											}
, 											{
												"box" : 												{
													"comment" : "",
													"id" : "obj-1",
													"index" : 1,
													"maxclass" : "inlet",
													"numinlets" : 0,
													"numoutlets" : 1,
													"outlettype" : [ "int" ],
													"patching_rect" : [ 47.0, 37.0, 30.0, 30.0 ]
												}

											}
, 											{
												"box" : 												{
													"id" : "obj-19",
													"maxclass" : "newobj",
													"numinlets" : 2,
													"numoutlets" : 0,
													"patching_rect" : [ 47.0, 284.0, 35.0, 22.0 ],
													"text" : "dac~"
												}

											}
, 											{
												"box" : 												{
													"id" : "obj-22",
													"linecount" : 2,
													"maxclass" : "comment",
													"numinlets" : 1,
													"numoutlets" : 0,
													"patching_rect" : [ 154.0, 237.0, 145.0, 33.0 ],
													"text" : "<downsample generated note at a rate = #deaths"
												}

											}
, 											{
												"box" : 												{
													"id" : "obj-20",
													"linecount" : 3,
													"maxclass" : "comment",
													"numinlets" : 1,
													"numoutlets" : 0,
													"patching_rect" : [ 178.0, 86.625, 102.0, 47.0 ],
													"text" : "generate note with internal midi device (piano)"
												}

											}
, 											{
												"box" : 												{
													"id" : "obj-14",
													"maxclass" : "newobj",
													"numinlets" : 3,
													"numoutlets" : 2,
													"outlettype" : [ "signal", "signal" ],
													"patcher" : 													{
														"fileversion" : 1,
														"appversion" : 														{
															"major" : 8,
															"minor" : 1,
															"revision" : 11,
															"architecture" : "x64",
															"modernui" : 1
														}
,
														"classnamespace" : "box",
														"rect" : [ 237.0, 126.0, 238.0, 259.0 ],
														"bglocked" : 0,
														"openinpresentation" : 0,
														"default_fontsize" : 12.0,
														"default_fontface" : 0,
														"default_fontname" : "Arial",
														"gridonopen" : 1,
														"gridsize" : [ 15.0, 15.0 ],
														"gridsnaponopen" : 1,
														"objectsnaponopen" : 1,
														"statusbarvisible" : 2,
														"toolbarvisible" : 1,
														"lefttoolbarpinned" : 0,
														"toptoolbarpinned" : 0,
														"righttoolbarpinned" : 0,
														"bottomtoolbarpinned" : 0,
														"toolbars_unpinned_last_save" : 0,
														"tallnewobj" : 0,
														"boxanimatetime" : 200,
														"enablehscroll" : 1,
														"enablevscroll" : 1,
														"devicewidth" : 0.0,
														"description" : "",
														"digest" : "",
														"tags" : "",
														"style" : "",
														"subpatcher_template" : "",
														"assistshowspatchername" : 0,
														"boxes" : [ 															{
																"box" : 																{
																	"comment" : "",
																	"id" : "obj-8",
																	"index" : 3,
																	"maxclass" : "inlet",
																	"numinlets" : 0,
																	"numoutlets" : 1,
																	"outlettype" : [ "" ],
																	"patching_rect" : [ 169.0, 60.0, 30.0, 30.0 ]
																}

															}
, 															{
																"box" : 																{
																	"id" : "obj-6",
																	"maxclass" : "newobj",
																	"numinlets" : 2,
																	"numoutlets" : 1,
																	"outlettype" : [ "signal" ],
																	"patching_rect" : [ 114.0, 126.0, 74.0, 22.0 ],
																	"text" : "downsamp~"
																}

															}
, 															{
																"box" : 																{
																	"comment" : "",
																	"id" : "obj-5",
																	"index" : 2,
																	"maxclass" : "outlet",
																	"numinlets" : 1,
																	"numoutlets" : 0,
																	"patching_rect" : [ 114.0, 181.0, 30.0, 30.0 ]
																}

															}
, 															{
																"box" : 																{
																	"comment" : "",
																	"id" : "obj-4",
																	"index" : 1,
																	"maxclass" : "outlet",
																	"numinlets" : 1,
																	"numoutlets" : 0,
																	"patching_rect" : [ 38.0, 181.0, 30.0, 30.0 ]
																}

															}
, 															{
																"box" : 																{
																	"comment" : "",
																	"id" : "obj-3",
																	"index" : 2,
																	"maxclass" : "inlet",
																	"numinlets" : 0,
																	"numoutlets" : 1,
																	"outlettype" : [ "signal" ],
																	"patching_rect" : [ 114.0, 60.0, 30.0, 30.0 ]
																}

															}
, 															{
																"box" : 																{
																	"comment" : "",
																	"id" : "obj-2",
																	"index" : 1,
																	"maxclass" : "inlet",
																	"numinlets" : 0,
																	"numoutlets" : 1,
																	"outlettype" : [ "signal" ],
																	"patching_rect" : [ 38.0, 60.0, 30.0, 30.0 ]
																}

															}
, 															{
																"box" : 																{
																	"id" : "obj-1",
																	"maxclass" : "newobj",
																	"numinlets" : 2,
																	"numoutlets" : 1,
																	"outlettype" : [ "signal" ],
																	"patching_rect" : [ 38.0, 126.0, 74.0, 22.0 ],
																	"text" : "downsamp~"
																}

															}
 ],
														"lines" : [ 															{
																"patchline" : 																{
																	"destination" : [ "obj-4", 0 ],
																	"source" : [ "obj-1", 0 ]
																}

															}
, 															{
																"patchline" : 																{
																	"destination" : [ "obj-1", 0 ],
																	"source" : [ "obj-2", 0 ]
																}

															}
, 															{
																"patchline" : 																{
																	"destination" : [ "obj-6", 0 ],
																	"source" : [ "obj-3", 0 ]
																}

															}
, 															{
																"patchline" : 																{
																	"destination" : [ "obj-5", 0 ],
																	"source" : [ "obj-6", 0 ]
																}

															}
, 															{
																"patchline" : 																{
																	"destination" : [ "obj-1", 1 ],
																	"order" : 1,
																	"source" : [ "obj-8", 0 ]
																}

															}
, 															{
																"patchline" : 																{
																	"destination" : [ "obj-6", 1 ],
																	"order" : 0,
																	"source" : [ "obj-8", 0 ]
																}

															}
 ]
													}
,
													"patching_rect" : [ 47.0, 237.0, 103.5, 22.0 ],
													"saved_object_attributes" : 													{
														"description" : "",
														"digest" : "",
														"globalpatchername" : "",
														"tags" : ""
													}
,
													"text" : "p downsample"
												}

											}
, 											{
												"box" : 												{
													"autosave" : 1,
													"bgmode" : 0,
													"border" : 0,
													"clickthrough" : 0,
													"id" : "obj-12",
													"maxclass" : "newobj",
													"numinlets" : 2,
													"numoutlets" : 8,
													"offset" : [ 0.0, 0.0 ],
													"outlettype" : [ "signal", "signal", "", "list", "int", "", "", "" ],
													"patching_rect" : [ 47.0, 186.0, 162.0, 22.0 ],
													"save" : [ "#N", "vst~", "loaduniqueid", 0, "DLSMusicDevice.auinfo", ";" ],
													"saved_attribute_attributes" : 													{
														"valueof" : 														{
															"parameter_invisible" : 1,
															"parameter_longname" : "vst~[1]",
															"parameter_shortname" : "vst~[4]",
															"parameter_type" : 3
														}

													}
,
													"saved_object_attributes" : 													{
														"parameter_enable" : 1,
														"parameter_mappable" : 0
													}
,
													"snapshot" : 													{
														"filetype" : "C74Snapshot",
														"version" : 2,
														"minorversion" : 0,
														"name" : "snapshotlist",
														"origin" : "vst~",
														"type" : "list",
														"subtype" : "Undefined",
														"embed" : 1,
														"snapshot" : 														{
															"pluginname" : "DLSMusicDevice.auinfo",
															"plugindisplayname" : "DLSMusicDevice",
															"pluginsavedname" : "",
															"pluginsaveduniqueid" : 1684828960,
															"version" : 1,
															"isbank" : 0,
															"isbase64" : 1,
															"blob" : "912.hAGaoMGcv.S2AHv.DTfAGfPBJr.CM3vCPDADRLAEUXQFZrAViAWcsv1agQFUtEVakckckI2bo8laeAwD0MWYsjlazUlbtEFasHWY1Ulbh4EYoM2ZsLGcxUVXsklam4kbk4FYkIWKwUWXrkFc4QEc4AWYTQVXzEFWsEla0YVXiQWcxUlbeAwClkFak0hbkYVYxUlaiU1bWMWchQWdvUFUBElaqwUYrUVak4Fcs3VXsUlH.....fUUtQWZzwVYjAA.PD.D+IQX00VcOAAI..............v...............P..........H......RDFbvwVzWfwVyIVKlkFak0hbkY1WPP0KSk2bzUVauvTZhIWXxk2KC8Vav8lak4Fcy8xPuIWYAUGYo8lKi8Vav8lak4FcuLzatQWYtQ2buHUYy8VcxMVYy8xYy8UZtMGcxUWak4Fcy4BYrMmDjw1bf7TDAfJ.....AfJ.B...LzTXiklaz81bnABRDA........................fPDAP.+++++KwYy8UZtMGcxUWak4Fcy4BYrMG...........................................................v+++++................+++++C..J.xX0A................PBRU1buUmbiU1b..f..T0K5LUdyQWYsoCSoIlbgIWd5LzasA2atUlazMmNC8lbkETcjk1atL1asA2atUlazoyPu4Fck4FcyoiTkM2a0I2XkMmNmM2Wo41bzIWcsUlazMmKjw1b..fC.XB.R.vY.LG.eAPZ.3F.yA.c.HG.0APa.TF.tA.c.LG.t..Y.vF.yAvC.nA.L.PS.DF.iAPZ.3F.zAva.LG.nA.H.fD.DAfD.L0T4MGck01KLklXxElb48xPu0Fbu4VYtQ2buLzaxUVP0QVZu4xXu0Fbu4VYtQ2KC8lazUlazM2KRU1buUmbiU1bub1beklayQmb00VYtQ2btPFayA..S.P.u.v++C..QyQGQIizd7AHgDELQEiVyQWYxU1afzVZ3YUctU2bkQF.H.vH.vB.w.PN.7D.dAPa.HG.2A.g.XI.dBvn..K.0Bfu..L.BC.w.jL.vCP8.fe.DDvVA.1.LLvCCDw.VL.FCnw.k........HP..........HB..................L.K"
														}
,
														"snapshotlist" : 														{
															"current_snapshot" : 0,
															"entries" : [ 																{
																	"filetype" : "C74Snapshot",
																	"version" : 2,
																	"minorversion" : 0,
																	"name" : "DLSMusicDevice",
																	"origin" : "DLSMusicDevice.auinfo",
																	"type" : "AudioUnit",
																	"subtype" : "Instrument",
																	"embed" : 0,
																	"snapshot" : 																	{
																		"pluginname" : "DLSMusicDevice.auinfo",
																		"plugindisplayname" : "DLSMusicDevice",
																		"pluginsavedname" : "",
																		"pluginsaveduniqueid" : 1684828960,
																		"version" : 1,
																		"isbank" : 0,
																		"isbase64" : 1,
																		"blob" : "912.hAGaoMGcv.S2AHv.DTfAGfPBJr.CM3vCPDADRLAEUXQFZrAViAWcsv1agQFUtEVakckckI2bo8laeAwD0MWYsjlazUlbtEFasHWY1Ulbh4EYoM2ZsLGcxUVXsklam4kbk4FYkIWKwUWXrkFc4QEc4AWYTQVXzEFWsEla0YVXiQWcxUlbeAwClkFak0hbkYVYxUlaiU1bWMWchQWdvUFUBElaqwUYrUVak4Fcs3VXsUlH.....fUUtQWZzwVYjAA.PD.D+IQX00VcOAAI..............v...............P..........H......RDFbvwVzWfwVyIVKlkFak0hbkY1WPP0KSk2bzUVauvTZhIWXxk2KC8Vav8lak4Fcy8xPuIWYAUGYo8lKi8Vav8lak4FcuLzatQWYtQ2buHUYy8VcxMVYy8xYy8UZtMGcxUWak4Fcy4BYrMmDjw1bf7TDAfJ.....AfJ.B...LzTXiklaz81bnABRDA........................fPDAP.+++++KwYy8UZtMGcxUWak4Fcy4BYrMG...........................................................v+++++................+++++C..J.xX0A................PBRU1buUmbiU1b..f..T0K5LUdyQWYsoCSoIlbgIWd5LzasA2atUlazMmNC8lbkETcjk1atL1asA2atUlazoyPu4Fck4FcyoiTkM2a0I2XkMmNmM2Wo41bzIWcsUlazMmKjw1b..fC.XB.R.vY.LG.eAPZ.3F.yA.c.HG.0APa.TF.tA.c.LG.t..Y.vF.yAvC.nA.L.PS.DF.iAPZ.3F.zAva.LG.nA.H.fD.DAfD.L0T4MGck01KLklXxElb48xPu0Fbu4VYtQ2buLzaxUVP0QVZu4xXu0Fbu4VYtQ2KC8lazUlazM2KRU1buUmbiU1bub1beklayQmb00VYtQ2btPFayA..S.P.u.v++C..QyQGQIizd7AHgDELQEiVyQWYxU1afzVZ3YUctU2bkQF.H.vH.vB.w.PN.7D.dAPa.HG.2A.g.XI.dBvn..K.0Bfu..L.BC.w.jL.vCP8.fe.DDvVA.1.LLvCCDw.VL.FCnw.k........HP..........HB..................L.K"
																	}
,
																	"fileref" : 																	{
																		"name" : "DLSMusicDevice",
																		"filename" : "DLSMusicDevice_20211102_4.maxsnap",
																		"filepath" : "~/Documents/Max 8/Snapshots",
																		"filepos" : -1,
																		"snapshotfileid" : "f038062df7e5b3314d84b0b3427776d8"
																	}

																}
, 																{
																	"filetype" : "C74Snapshot",
																	"version" : 2,
																	"minorversion" : 0,
																	"name" : "DLSMusicDevice",
																	"origin" : "DLSMusicDevice.auinfo",
																	"type" : "AudioUnit",
																	"subtype" : "Instrument",
																	"embed" : 0,
																	"fileref" : 																	{
																		"name" : "DLSMusicDevice",
																		"filename" : "DLSMusicDevice.maxsnap",
																		"filepath" : "~/Documents/Max 8/Snapshots",
																		"filepos" : -1,
																		"snapshotfileid" : "e059cd28ccc334f42d4c47d41210efa7"
																	}

																}
, 																{
																	"filetype" : "C74Snapshot",
																	"version" : 2,
																	"minorversion" : 0,
																	"name" : "DLSMusicDevice",
																	"origin" : "DLSMusicDevice.auinfo",
																	"type" : "AudioUnit",
																	"subtype" : "Instrument",
																	"embed" : 0,
																	"fileref" : 																	{
																		"name" : "DLSMusicDevice",
																		"filename" : "DLSMusicDevice_20211102.maxsnap",
																		"filepath" : "~/Documents/Max 8/Snapshots",
																		"filepos" : -1,
																		"snapshotfileid" : "2de4a949e60007af21e6687c75cbb1e9"
																	}

																}
, 																{
																	"filetype" : "C74Snapshot",
																	"version" : 2,
																	"minorversion" : 0,
																	"name" : "DLSMusicDevice",
																	"origin" : "DLSMusicDevice.auinfo",
																	"type" : "AudioUnit",
																	"subtype" : "Instrument",
																	"embed" : 0,
																	"fileref" : 																	{
																		"name" : "DLSMusicDevice",
																		"filename" : "DLSMusicDevice_20211102_1.maxsnap",
																		"filepath" : "~/Documents/Max 8/Snapshots",
																		"filepos" : -1,
																		"snapshotfileid" : "ffb72f205a915955ab4043b6b02895c5"
																	}

																}
, 																{
																	"filetype" : "C74Snapshot",
																	"version" : 2,
																	"minorversion" : 0,
																	"name" : "DLSMusicDevice",
																	"origin" : "DLSMusicDevice.auinfo",
																	"type" : "AudioUnit",
																	"subtype" : "Instrument",
																	"embed" : 0,
																	"fileref" : 																	{
																		"name" : "DLSMusicDevice",
																		"filename" : "DLSMusicDevice_20211102_2.maxsnap",
																		"filepath" : "~/Documents/Max 8/Snapshots",
																		"filepos" : -1,
																		"snapshotfileid" : "4091ef9d4d8fa6ce13b45dd607a62c61"
																	}

																}
, 																{
																	"filetype" : "C74Snapshot",
																	"version" : 2,
																	"minorversion" : 0,
																	"name" : "DLSMusicDevice",
																	"origin" : "DLSMusicDevice.auinfo",
																	"type" : "AudioUnit",
																	"subtype" : "Instrument",
																	"embed" : 0,
																	"fileref" : 																	{
																		"name" : "DLSMusicDevice",
																		"filename" : "DLSMusicDevice_20211102_3.maxsnap",
																		"filepath" : "~/Documents/Max 8/Snapshots",
																		"filepos" : -1,
																		"snapshotfileid" : "c7bada71ef961417d97798011f3ef8b4"
																	}

																}
 ]
														}

													}
,
													"text" : "vst~ DLSMusicDevice.auinfo",
													"varname" : "vst~[1]",
													"viewvisibility" : 0
												}

											}
, 											{
												"box" : 												{
													"id" : "obj-9",
													"maxclass" : "newobj",
													"numinlets" : 7,
													"numoutlets" : 2,
													"outlettype" : [ "int", "" ],
													"patching_rect" : [ 47.0, 156.0, 82.0, 22.0 ],
													"text" : "midiformat"
												}

											}
, 											{
												"box" : 												{
													"fontname" : "Arial",
													"fontsize" : 13.0,
													"id" : "obj-66",
													"maxclass" : "newobj",
													"numinlets" : 2,
													"numoutlets" : 1,
													"outlettype" : [ "" ],
													"patching_rect" : [ 47.0, 131.0, 32.5, 23.0 ],
													"text" : "join"
												}

											}
, 											{
												"box" : 												{
													"fontname" : "Arial",
													"fontsize" : 13.0,
													"id" : "obj-67",
													"maxclass" : "newobj",
													"numinlets" : 3,
													"numoutlets" : 2,
													"outlettype" : [ "float", "float" ],
													"patching_rect" : [ 47.0, 97.0, 116.0, 23.0 ],
													"text" : "makenote 60 5000"
												}

											}
, 											{
												"box" : 												{
													"angle" : 270.0,
													"background" : 1,
													"bgcolor" : [ 0.8, 0.8, 0.8, 0.0 ],
													"border" : 1,
													"bordercolor" : [ 0.482352941176471, 0.482352941176471, 0.482352941176471, 1.0 ],
													"id" : "obj-18",
													"maxclass" : "panel",
													"mode" : 0,
													"numinlets" : 1,
													"numoutlets" : 0,
													"patching_rect" : [ 38.0, 86.625, 242.0, 130.75 ],
													"proportion" : 0.5,
													"rounded" : 20
												}

											}
 ],
										"lines" : [ 											{
												"patchline" : 												{
													"destination" : [ "obj-67", 0 ],
													"source" : [ "obj-1", 0 ]
												}

											}
, 											{
												"patchline" : 												{
													"destination" : [ "obj-14", 1 ],
													"source" : [ "obj-12", 1 ]
												}

											}
, 											{
												"patchline" : 												{
													"destination" : [ "obj-14", 0 ],
													"source" : [ "obj-12", 0 ]
												}

											}
, 											{
												"patchline" : 												{
													"destination" : [ "obj-19", 1 ],
													"source" : [ "obj-14", 1 ]
												}

											}
, 											{
												"patchline" : 												{
													"destination" : [ "obj-19", 0 ],
													"source" : [ "obj-14", 0 ]
												}

											}
, 											{
												"patchline" : 												{
													"destination" : [ "obj-14", 2 ],
													"midpoints" : [ 88.5, 79.0, 288.0, 79.0, 288.0, 224.0, 141.0, 224.0 ],
													"source" : [ "obj-2", 0 ]
												}

											}
, 											{
												"patchline" : 												{
													"destination" : [ "obj-9", 0 ],
													"source" : [ "obj-66", 0 ]
												}

											}
, 											{
												"patchline" : 												{
													"destination" : [ "obj-66", 1 ],
													"source" : [ "obj-67", 1 ]
												}

											}
, 											{
												"patchline" : 												{
													"destination" : [ "obj-66", 0 ],
													"midpoints" : [ 56.5, 120.0, 56.5, 120.0 ],
													"source" : [ "obj-67", 0 ]
												}

											}
, 											{
												"patchline" : 												{
													"destination" : [ "obj-12", 0 ],
													"source" : [ "obj-9", 1 ]
												}

											}
 ],
										"styles" : [ 											{
												"name" : "ksliderWhite",
												"default" : 												{
													"color" : [ 1, 1, 1, 1 ]
												}
,
												"parentstyle" : "",
												"multi" : 0
											}
, 											{
												"name" : "newobjBlue-1",
												"default" : 												{
													"accentcolor" : [ 0.317647, 0.654902, 0.976471, 1 ]
												}
,
												"parentstyle" : "",
												"multi" : 0
											}
, 											{
												"name" : "newobjGreen-1",
												"default" : 												{
													"accentcolor" : [ 0, 0.533333, 0.168627, 1 ]
												}
,
												"parentstyle" : "",
												"multi" : 0
											}
, 											{
												"name" : "numberGold-1",
												"default" : 												{
													"accentcolor" : [ 0.764706, 0.592157, 0.101961, 1 ]
												}
,
												"parentstyle" : "",
												"multi" : 0
											}
 ]
									}
,
									"patching_rect" : [ 44.25, 241.0, 42.0, 22.0 ],
									"saved_object_attributes" : 									{
										"description" : "",
										"digest" : "",
										"globalpatchername" : "",
										"tags" : ""
									}
,
									"text" : "p note"
								}

							}
, 							{
								"box" : 								{
									"comment" : "",
									"id" : "obj-5",
									"index" : 1,
									"maxclass" : "inlet",
									"numinlets" : 0,
									"numoutlets" : 1,
									"outlettype" : [ "" ],
									"patching_rect" : [ 44.25, 37.0, 30.0, 30.0 ]
								}

							}
, 							{
								"box" : 								{
									"id" : "obj-25",
									"maxclass" : "comment",
									"numinlets" : 1,
									"numoutlets" : 0,
									"patching_rect" : [ 161.25, 265.0, 106.0, 20.0 ],
									"text" : "^add cases to dict"
								}

							}
, 							{
								"box" : 								{
									"id" : "obj-22",
									"maxclass" : "comment",
									"numinlets" : 1,
									"numoutlets" : 0,
									"patching_rect" : [ 331.25, 265.0, 110.0, 20.0 ],
									"text" : "^add deaths to dict"
								}

							}
, 							{
								"box" : 								{
									"id" : "obj-15",
									"maxclass" : "newobj",
									"numinlets" : 1,
									"numoutlets" : 1,
									"outlettype" : [ "" ],
									"patching_rect" : [ 269.25, 241.0, 172.0, 22.0 ],
									"text" : "prepend set generated_deaths"
								}

							}
, 							{
								"box" : 								{
									"id" : "obj-14",
									"maxclass" : "newobj",
									"numinlets" : 1,
									"numoutlets" : 1,
									"outlettype" : [ "" ],
									"patching_rect" : [ 100.25, 241.0, 167.0, 22.0 ],
									"text" : "prepend set generated_cases"
								}

							}
, 							{
								"box" : 								{
									"id" : "obj-3",
									"maxclass" : "newobj",
									"numinlets" : 1,
									"numoutlets" : 2,
									"outlettype" : [ "int", "int" ],
									"patching_rect" : [ 44.25, 75.0, 75.0, 22.0 ],
									"text" : "unpack 0 0"
								}

							}
, 							{
								"box" : 								{
									"id" : "obj-2",
									"maxclass" : "newobj",
									"numinlets" : 3,
									"numoutlets" : 3,
									"outlettype" : [ "bang", "bang", "" ],
									"patching_rect" : [ 100.25, 122.0, 44.0, 22.0 ],
									"text" : "sel 1 0"
								}

							}
, 							{
								"box" : 								{
									"id" : "obj-24",
									"linecount" : 2,
									"maxclass" : "comment",
									"numinlets" : 1,
									"numoutlets" : 0,
									"patching_rect" : [ 115.75, 206.0, 65.75, 33.0 ],
									"text" : "^#deaths\n(hispanic)"
								}

							}
, 							{
								"box" : 								{
									"id" : "obj-23",
									"linecount" : 2,
									"maxclass" : "comment",
									"numinlets" : 1,
									"numoutlets" : 0,
									"patching_rect" : [ 228.5, 182.0, 61.0, 33.0 ],
									"text" : "<#cases\n(hispanic)"
								}

							}
, 							{
								"box" : 								{
									"id" : "obj-11",
									"maxclass" : "newobj",
									"numinlets" : 0,
									"numoutlets" : 1,
									"outlettype" : [ "" ],
									"patching_rect" : [ 208.0, 75.0, 43.0, 22.0 ],
									"text" : "r reset"
								}

							}
, 							{
								"box" : 								{
									"id" : "obj-10",
									"maxclass" : "number",
									"numinlets" : 1,
									"numoutlets" : 2,
									"outlettype" : [ "", "bang" ],
									"parameter_enable" : 0,
									"patching_rect" : [ 176.5, 182.0, 50.0, 22.0 ]
								}

							}
, 							{
								"box" : 								{
									"id" : "obj-6",
									"maxclass" : "number",
									"numinlets" : 1,
									"numoutlets" : 2,
									"outlettype" : [ "", "bang" ],
									"parameter_enable" : 0,
									"patching_rect" : [ 100.25, 182.0, 50.0, 22.0 ]
								}

							}
, 							{
								"box" : 								{
									"id" : "obj-76",
									"maxclass" : "message",
									"numinlets" : 2,
									"numoutlets" : 1,
									"outlettype" : [ "" ],
									"patching_rect" : [ 208.0, 122.0, 29.5, 22.0 ],
									"text" : "0"
								}

							}
, 							{
								"box" : 								{
									"id" : "obj-71",
									"maxclass" : "newobj",
									"numinlets" : 5,
									"numoutlets" : 4,
									"outlettype" : [ "int", "", "", "int" ],
									"patching_rect" : [ 176.5, 158.0, 61.0, 22.0 ],
									"text" : "counter"
								}

							}
, 							{
								"box" : 								{
									"id" : "obj-68",
									"maxclass" : "newobj",
									"numinlets" : 5,
									"numoutlets" : 4,
									"outlettype" : [ "int", "", "", "int" ],
									"patching_rect" : [ 100.25, 158.0, 61.0, 22.0 ],
									"text" : "counter"
								}

							}
, 							{
								"box" : 								{
									"id" : "obj-7",
									"maxclass" : "comment",
									"numinlets" : 1,
									"numoutlets" : 0,
									"patching_rect" : [ 76.25, 42.0, 71.5, 20.0 ],
									"text" : "<new case"
								}

							}
 ],
						"lines" : [ 							{
								"patchline" : 								{
									"destination" : [ "obj-15", 0 ],
									"source" : [ "obj-10", 0 ]
								}

							}
, 							{
								"patchline" : 								{
									"destination" : [ "obj-76", 0 ],
									"source" : [ "obj-11", 0 ]
								}

							}
, 							{
								"patchline" : 								{
									"destination" : [ "obj-68", 0 ],
									"order" : 1,
									"source" : [ "obj-2", 0 ]
								}

							}
, 							{
								"patchline" : 								{
									"destination" : [ "obj-71", 0 ],
									"source" : [ "obj-2", 1 ]
								}

							}
, 							{
								"patchline" : 								{
									"destination" : [ "obj-71", 0 ],
									"order" : 0,
									"source" : [ "obj-2", 0 ]
								}

							}
, 							{
								"patchline" : 								{
									"destination" : [ "obj-17", 0 ],
									"source" : [ "obj-3", 0 ]
								}

							}
, 							{
								"patchline" : 								{
									"destination" : [ "obj-2", 0 ],
									"source" : [ "obj-3", 1 ]
								}

							}
, 							{
								"patchline" : 								{
									"destination" : [ "obj-3", 0 ],
									"source" : [ "obj-5", 0 ]
								}

							}
, 							{
								"patchline" : 								{
									"destination" : [ "obj-14", 0 ],
									"order" : 0,
									"source" : [ "obj-6", 0 ]
								}

							}
, 							{
								"patchline" : 								{
									"destination" : [ "obj-17", 1 ],
									"midpoints" : [ 109.75, 223.0, 76.75, 223.0 ],
									"order" : 1,
									"source" : [ "obj-6", 0 ]
								}

							}
, 							{
								"patchline" : 								{
									"destination" : [ "obj-6", 0 ],
									"source" : [ "obj-68", 0 ]
								}

							}
, 							{
								"patchline" : 								{
									"destination" : [ "obj-10", 0 ],
									"source" : [ "obj-71", 0 ]
								}

							}
, 							{
								"patchline" : 								{
									"destination" : [ "obj-68", 3 ],
									"order" : 1,
									"source" : [ "obj-76", 0 ]
								}

							}
, 							{
								"patchline" : 								{
									"destination" : [ "obj-71", 3 ],
									"order" : 0,
									"source" : [ "obj-76", 0 ]
								}

							}
 ],
						"styles" : [ 							{
								"name" : "ksliderWhite",
								"default" : 								{
									"color" : [ 1, 1, 1, 1 ]
								}
,
								"parentstyle" : "",
								"multi" : 0
							}
, 							{
								"name" : "newobjBlue-1",
								"default" : 								{
									"accentcolor" : [ 0.317647, 0.654902, 0.976471, 1 ]
								}
,
								"parentstyle" : "",
								"multi" : 0
							}
, 							{
								"name" : "newobjGreen-1",
								"default" : 								{
									"accentcolor" : [ 0, 0.533333, 0.168627, 1 ]
								}
,
								"parentstyle" : "",
								"multi" : 0
							}
, 							{
								"name" : "numberGold-1",
								"default" : 								{
									"accentcolor" : [ 0.764706, 0.592157, 0.101961, 1 ]
								}
,
								"parentstyle" : "",
								"multi" : 0
							}
 ]
					}
,
					"patching_rect" : [ 129.166666666666686, 536.0, 63.0, 22.0 ],
					"saved_object_attributes" : 					{
						"description" : "",
						"digest" : "",
						"globalpatchername" : "",
						"tags" : ""
					}
,
					"text" : "p hispanic"
				}

			}
, 			{
				"box" : 				{
					"id" : "obj-78",
					"maxclass" : "newobj",
					"numinlets" : 2,
					"numoutlets" : 2,
					"outlettype" : [ "", "" ],
					"patching_rect" : [ 129.166666666666686, 512.0, 47.0, 22.0 ],
					"text" : "zl.iter 2"
				}

			}
 ],
		"lines" : [ 			{
				"patchline" : 				{
					"destination" : [ "obj-22", 0 ],
					"source" : [ "obj-1", 0 ]
				}

			}
, 			{
				"patchline" : 				{
					"destination" : [ "obj-45", 0 ],
					"source" : [ "obj-16", 0 ]
				}

			}
, 			{
				"patchline" : 				{
					"destination" : [ "obj-88", 0 ],
					"source" : [ "obj-2", 0 ]
				}

			}
, 			{
				"patchline" : 				{
					"destination" : [ "obj-4", 0 ],
					"source" : [ "obj-22", 0 ]
				}

			}
, 			{
				"patchline" : 				{
					"destination" : [ "obj-4", 3 ],
					"order" : 1,
					"source" : [ "obj-25", 0 ]
				}

			}
, 			{
				"patchline" : 				{
					"destination" : [ "obj-88", 0 ],
					"midpoints" : [ 125.5, 182.0, 268.333333333333371, 182.0 ],
					"order" : 0,
					"source" : [ "obj-25", 0 ]
				}

			}
, 			{
				"patchline" : 				{
					"destination" : [ "obj-25", 0 ],
					"source" : [ "obj-3", 0 ]
				}

			}
, 			{
				"patchline" : 				{
					"destination" : [ "obj-65", 0 ],
					"source" : [ "obj-37", 0 ]
				}

			}
, 			{
				"patchline" : 				{
					"destination" : [ "obj-78", 0 ],
					"source" : [ "obj-39", 1 ]
				}

			}
, 			{
				"patchline" : 				{
					"destination" : [ "obj-58", 0 ],
					"source" : [ "obj-4", 0 ]
				}

			}
, 			{
				"patchline" : 				{
					"destination" : [ "obj-16", 0 ],
					"source" : [ "obj-41", 0 ]
				}

			}
, 			{
				"patchline" : 				{
					"destination" : [ "obj-52", 0 ],
					"source" : [ "obj-45", 1 ]
				}

			}
, 			{
				"patchline" : 				{
					"destination" : [ "obj-45", 0 ],
					"source" : [ "obj-51", 0 ]
				}

			}
, 			{
				"patchline" : 				{
					"destination" : [ "obj-37", 0 ],
					"source" : [ "obj-52", 0 ]
				}

			}
, 			{
				"patchline" : 				{
					"destination" : [ "obj-51", 0 ],
					"order" : 1,
					"source" : [ "obj-58", 0 ]
				}

			}
, 			{
				"patchline" : 				{
					"destination" : [ "obj-60", 0 ],
					"midpoints" : [ 94.0, 255.0, 164.0, 255.0 ],
					"order" : 0,
					"source" : [ "obj-58", 0 ]
				}

			}
, 			{
				"patchline" : 				{
					"destination" : [ "obj-52", 1 ],
					"source" : [ "obj-60", 0 ]
				}

			}
, 			{
				"patchline" : 				{
					"destination" : [ "obj-69", 1 ],
					"order" : 0,
					"source" : [ "obj-65", 0 ]
				}

			}
, 			{
				"patchline" : 				{
					"destination" : [ "obj-69", 0 ],
					"order" : 1,
					"source" : [ "obj-65", 0 ]
				}

			}
, 			{
				"patchline" : 				{
					"destination" : [ "obj-80", 1 ],
					"source" : [ "obj-65", 1 ]
				}

			}
, 			{
				"patchline" : 				{
					"destination" : [ "obj-86", 0 ],
					"order" : 2,
					"source" : [ "obj-65", 0 ]
				}

			}
, 			{
				"patchline" : 				{
					"destination" : [ "obj-22", 0 ],
					"midpoints" : [ 91.666666666666671, 450.0, 37.0, 450.0, 37.0, 131.0, 94.0, 131.0 ],
					"order" : 0,
					"source" : [ "obj-69", 0 ]
				}

			}
, 			{
				"patchline" : 				{
					"destination" : [ "obj-80", 0 ],
					"order" : 1,
					"source" : [ "obj-69", 0 ]
				}

			}
, 			{
				"patchline" : 				{
					"destination" : [ "obj-8", 0 ],
					"source" : [ "obj-78", 0 ]
				}

			}
, 			{
				"patchline" : 				{
					"destination" : [ "obj-39", 0 ],
					"source" : [ "obj-80", 0 ]
				}

			}
, 			{
				"patchline" : 				{
					"destination" : [ "obj-69", 0 ],
					"source" : [ "obj-88", 0 ]
				}

			}
 ],
		"parameters" : 		{
			"obj-8::obj-17::obj-12" : [ "vst~[1]", "vst~[4]", 0 ],
			"parameterbanks" : 			{

			}
,
			"inherited_shortname" : 1
		}
,
		"dependency_cache" : [ 			{
				"name" : "DLSMusicDevice_20211102_4.maxsnap",
				"bootpath" : "~/Documents/Max 8/Snapshots",
				"patcherrelativepath" : "../../../../../../Documents/Max 8/Snapshots",
				"type" : "mx@s",
				"implicit" : 1
			}
, 			{
				"name" : "DLSMusicDevice.maxsnap",
				"bootpath" : "~/Documents/Max 8/Snapshots",
				"patcherrelativepath" : "../../../../../../Documents/Max 8/Snapshots",
				"type" : "mx@s",
				"implicit" : 1
			}
, 			{
				"name" : "DLSMusicDevice_20211102.maxsnap",
				"bootpath" : "~/Documents/Max 8/Snapshots",
				"patcherrelativepath" : "../../../../../../Documents/Max 8/Snapshots",
				"type" : "mx@s",
				"implicit" : 1
			}
, 			{
				"name" : "DLSMusicDevice_20211102_1.maxsnap",
				"bootpath" : "~/Documents/Max 8/Snapshots",
				"patcherrelativepath" : "../../../../../../Documents/Max 8/Snapshots",
				"type" : "mx@s",
				"implicit" : 1
			}
, 			{
				"name" : "DLSMusicDevice_20211102_2.maxsnap",
				"bootpath" : "~/Documents/Max 8/Snapshots",
				"patcherrelativepath" : "../../../../../../Documents/Max 8/Snapshots",
				"type" : "mx@s",
				"implicit" : 1
			}
, 			{
				"name" : "DLSMusicDevice_20211102_3.maxsnap",
				"bootpath" : "~/Documents/Max 8/Snapshots",
				"patcherrelativepath" : "../../../../../../Documents/Max 8/Snapshots",
				"type" : "mx@s",
				"implicit" : 1
			}
 ],
		"autosave" : 0,
		"styles" : [ 			{
				"name" : "ksliderWhite",
				"default" : 				{
					"color" : [ 1, 1, 1, 1 ]
				}
,
				"parentstyle" : "",
				"multi" : 0
			}
, 			{
				"name" : "newobjBlue-1",
				"default" : 				{
					"accentcolor" : [ 0.317647, 0.654902, 0.976471, 1 ]
				}
,
				"parentstyle" : "",
				"multi" : 0
			}
, 			{
				"name" : "newobjGreen-1",
				"default" : 				{
					"accentcolor" : [ 0, 0.533333, 0.168627, 1 ]
				}
,
				"parentstyle" : "",
				"multi" : 0
			}
, 			{
				"name" : "numberGold-1",
				"default" : 				{
					"accentcolor" : [ 0.764706, 0.592157, 0.101961, 1 ]
				}
,
				"parentstyle" : "",
				"multi" : 0
			}
 ]
	}

}
