{
	"patcher" : 	{
		"fileversion" : 1,
		"appversion" : 		{
			"major" : 8,
			"minor" : 1,
			"revision" : 11,
			"architecture" : "x64",
			"modernui" : 1
		}
,
		"classnamespace" : "box",
		"rect" : [ 824.0, 440.0, 640.0, 480.0 ],
		"bglocked" : 0,
		"openinpresentation" : 0,
		"default_fontsize" : 12.0,
		"default_fontface" : 0,
		"default_fontname" : "Arial",
		"gridonopen" : 1,
		"gridsize" : [ 15.0, 15.0 ],
		"gridsnaponopen" : 1,
		"objectsnaponopen" : 1,
		"statusbarvisible" : 2,
		"toolbarvisible" : 1,
		"lefttoolbarpinned" : 0,
		"toptoolbarpinned" : 0,
		"righttoolbarpinned" : 0,
		"bottomtoolbarpinned" : 0,
		"toolbars_unpinned_last_save" : 0,
		"tallnewobj" : 0,
		"boxanimatetime" : 200,
		"enablehscroll" : 1,
		"enablevscroll" : 1,
		"devicewidth" : 0.0,
		"description" : "",
		"digest" : "",
		"tags" : "",
		"style" : "",
		"subpatcher_template" : "",
		"assistshowspatchername" : 0,
		"boxes" : [ 			{
				"box" : 				{
					"id" : "obj-23",
					"maxclass" : "newobj",
					"numinlets" : 4,
					"numoutlets" : 3,
					"outlettype" : [ "jit_gl_texture", "jit_gl_texture", "" ],
					"patcher" : 					{
						"fileversion" : 1,
						"appversion" : 						{
							"major" : 8,
							"minor" : 1,
							"revision" : 11,
							"architecture" : "x64",
							"modernui" : 1
						}
,
						"classnamespace" : "jit.gen",
						"rect" : [ 813.0, 147.0, 942.0, 788.0 ],
						"bglocked" : 0,
						"openinpresentation" : 0,
						"default_fontsize" : 12.0,
						"default_fontface" : 0,
						"default_fontname" : "Arial",
						"gridonopen" : 1,
						"gridsize" : [ 15.0, 15.0 ],
						"gridsnaponopen" : 1,
						"objectsnaponopen" : 1,
						"statusbarvisible" : 2,
						"toolbarvisible" : 1,
						"lefttoolbarpinned" : 0,
						"toptoolbarpinned" : 0,
						"righttoolbarpinned" : 0,
						"bottomtoolbarpinned" : 0,
						"toolbars_unpinned_last_save" : 0,
						"tallnewobj" : 0,
						"boxanimatetime" : 200,
						"enablehscroll" : 1,
						"enablevscroll" : 1,
						"devicewidth" : 0.0,
						"description" : "",
						"digest" : "",
						"tags" : "",
						"style" : "",
						"subpatcher_template" : "",
						"assistshowspatchername" : 0,
						"boxes" : [ 							{
								"box" : 								{
									"id" : "obj-9",
									"maxclass" : "newobj",
									"numinlets" : 2,
									"numoutlets" : 1,
									"outlettype" : [ "" ],
									"patcher" : 									{
										"fileversion" : 1,
										"appversion" : 										{
											"major" : 8,
											"minor" : 1,
											"revision" : 11,
											"architecture" : "x64",
											"modernui" : 1
										}
,
										"classnamespace" : "jit.gen",
										"rect" : [ 80.0, 95.0, 884.0, 768.0 ],
										"bglocked" : 0,
										"openinpresentation" : 0,
										"default_fontsize" : 12.0,
										"default_fontface" : 0,
										"default_fontname" : "Arial",
										"gridonopen" : 1,
										"gridsize" : [ 15.0, 15.0 ],
										"gridsnaponopen" : 1,
										"objectsnaponopen" : 1,
										"statusbarvisible" : 2,
										"toolbarvisible" : 1,
										"lefttoolbarpinned" : 0,
										"toptoolbarpinned" : 0,
										"righttoolbarpinned" : 0,
										"bottomtoolbarpinned" : 0,
										"toolbars_unpinned_last_save" : 0,
										"tallnewobj" : 0,
										"boxanimatetime" : 200,
										"enablehscroll" : 1,
										"enablevscroll" : 1,
										"devicewidth" : 0.0,
										"description" : "",
										"digest" : "",
										"tags" : "",
										"style" : "",
										"subpatcher_template" : "",
										"assistshowspatchername" : 0,
										"boxes" : [ 											{
												"box" : 												{
													"id" : "obj-7",
													"maxclass" : "newobj",
													"numinlets" : 1,
													"numoutlets" : 1,
													"outlettype" : [ "" ],
													"patching_rect" : [ 96.710525393486023, 370.394733309745789, 23.0, 22.0 ],
													"text" : "- 1"
												}

											}
, 											{
												"box" : 												{
													"id" : "obj-5",
													"maxclass" : "newobj",
													"numinlets" : 2,
													"numoutlets" : 1,
													"outlettype" : [ "" ],
													"patching_rect" : [ 141.599824547767639, 564.473678827285767, 29.5, 22.0 ],
													"text" : "*"
												}

											}
, 											{
												"box" : 												{
													"id" : "obj-4",
													"maxclass" : "newobj",
													"numinlets" : 1,
													"numoutlets" : 1,
													"outlettype" : [ "" ],
													"patching_rect" : [ 309.813004612922668, 529.61384129524231, 154.0, 22.0 ],
													"text" : "expr (in1 >= 0) && (in1 < 1)"
												}

											}
, 											{
												"box" : 												{
													"id" : "obj-3",
													"maxclass" : "newobj",
													"numinlets" : 1,
													"numoutlets" : 1,
													"outlettype" : [ "" ],
													"patching_rect" : [ 141.599824547767639, 390.789469957351685, 33.0, 22.0 ],
													"text" : "- 0.5"
												}

											}
, 											{
												"box" : 												{
													"id" : "obj-2",
													"maxclass" : "newobj",
													"numinlets" : 1,
													"numoutlets" : 1,
													"outlettype" : [ "" ],
													"patching_rect" : [ 141.599824547767639, 353.923853039741516, 23.0, 22.0 ],
													"text" : "* 2"
												}

											}
, 											{
												"box" : 												{
													"id" : "obj-1",
													"maxclass" : "newobj",
													"numinlets" : 1,
													"numoutlets" : 1,
													"outlettype" : [ "" ],
													"patching_rect" : [ 96.95663583278656, 307.236839175224304, 23.0, 22.0 ],
													"text" : "* 2"
												}

											}
, 											{
												"box" : 												{
													"id" : "obj-51",
													"maxclass" : "newobj",
													"numinlets" : 2,
													"numoutlets" : 1,
													"outlettype" : [ "" ],
													"patching_rect" : [ 141.599824547767639, 317.235790371894836, 29.5, 22.0 ],
													"text" : "-"
												}

											}
, 											{
												"box" : 												{
													"id" : "obj-49",
													"maxclass" : "newobj",
													"numinlets" : 1,
													"numoutlets" : 1,
													"outlettype" : [ "" ],
													"patching_rect" : [ 375.813004612922668, 280.650423645973206, 22.0, 22.0 ],
													"text" : "/ 2"
												}

											}
, 											{
												"box" : 												{
													"id" : "obj-50",
													"maxclass" : "newobj",
													"numinlets" : 1,
													"numoutlets" : 1,
													"outlettype" : [ "" ],
													"patching_rect" : [ 375.813004612922668, 252.357740044593811, 23.0, 22.0 ],
													"text" : "- 1"
												}

											}
, 											{
												"box" : 												{
													"id" : "obj-48",
													"maxclass" : "newobj",
													"numinlets" : 2,
													"numoutlets" : 1,
													"outlettype" : [ "" ],
													"patching_rect" : [ 141.599824547767639, 275.2845698595047, 29.5, 22.0 ],
													"text" : "*"
												}

											}
, 											{
												"box" : 												{
													"id" : "obj-47",
													"maxclass" : "newobj",
													"numinlets" : 1,
													"numoutlets" : 1,
													"outlettype" : [ "" ],
													"patching_rect" : [ 375.813004612922668, 206.504080414772034, 96.0, 22.0 ],
													"text" : "expr in1.y / in1.x"
												}

											}
, 											{
												"box" : 												{
													"id" : "obj-46",
													"maxclass" : "comment",
													"numinlets" : 1,
													"numoutlets" : 0,
													"patching_rect" : [ 364.313004612922668, 146.991883873939514, 140.0, 20.0 ],
													"text" : "dimension of the window"
												}

											}
, 											{
												"box" : 												{
													"id" : "obj-44",
													"maxclass" : "newobj",
													"numinlets" : 0,
													"numoutlets" : 1,
													"outlettype" : [ "" ],
													"patching_rect" : [ 375.813004612922668, 173.284567475318909, 28.0, 22.0 ],
													"text" : "dim"
												}

											}
, 											{
												"box" : 												{
													"id" : "obj-43",
													"maxclass" : "newobj",
													"numinlets" : 1,
													"numoutlets" : 1,
													"outlettype" : [ "" ],
													"patching_rect" : [ 141.599824547767639, 529.61384129524231, 154.0, 22.0 ],
													"text" : "expr (in1 >= 0) && (in1 < 1)"
												}

											}
, 											{
												"box" : 												{
													"id" : "obj-42",
													"maxclass" : "newobj",
													"numinlets" : 2,
													"numoutlets" : 1,
													"outlettype" : [ "" ],
													"patching_rect" : [ 49.99999898215485, 529.61384129524231, 29.5, 22.0 ],
													"text" : "*"
												}

											}
, 											{
												"box" : 												{
													"id" : "obj-41",
													"maxclass" : "newobj",
													"numinlets" : 2,
													"numoutlets" : 1,
													"outlettype" : [ "" ],
													"patching_rect" : [ 141.599824547767639, 244.065056920051575, 29.5, 22.0 ],
													"text" : "-"
												}

											}
, 											{
												"box" : 												{
													"id" : "obj-40",
													"maxclass" : "newobj",
													"numinlets" : 1,
													"numoutlets" : 1,
													"outlettype" : [ "" ],
													"patching_rect" : [ 232.398370385169983, 244.065056920051575, 22.0, 22.0 ],
													"text" : "/ 2"
												}

											}
, 											{
												"box" : 												{
													"id" : "obj-39",
													"maxclass" : "comment",
													"numinlets" : 1,
													"numoutlets" : 0,
													"patching_rect" : [ 272.819339871406555, 215.77237331867218, 39.0, 20.0 ],
													"text" : "0.333"
												}

											}
, 											{
												"box" : 												{
													"id" : "obj-37",
													"maxclass" : "newobj",
													"numinlets" : 1,
													"numoutlets" : 1,
													"outlettype" : [ "" ],
													"patching_rect" : [ 232.398370385169983, 215.77237331867218, 23.0, 22.0 ],
													"text" : "- 1"
												}

											}
, 											{
												"box" : 												{
													"id" : "obj-36",
													"maxclass" : "comment",
													"numinlets" : 1,
													"numoutlets" : 0,
													"patching_rect" : [ 244.038851380348206, 175.284567475318909, 39.0, 20.0 ],
													"text" : "1.333"
												}

											}
, 											{
												"box" : 												{
													"id" : "obj-34",
													"maxclass" : "newobj",
													"numinlets" : 2,
													"numoutlets" : 1,
													"outlettype" : [ "" ],
													"patching_rect" : [ 141.599824547767639, 192.357738614082336, 29.5, 22.0 ],
													"text" : "*"
												}

											}
, 											{
												"box" : 												{
													"id" : "obj-33",
													"maxclass" : "newobj",
													"numinlets" : 2,
													"numoutlets" : 1,
													"outlettype" : [ "" ],
													"patching_rect" : [ 96.95663583278656, 447.344904780387878, 47.0, 22.0 ],
													"text" : "vec 0 0"
												}

											}
, 											{
												"box" : 												{
													"id" : "obj-32",
													"maxclass" : "newobj",
													"numinlets" : 1,
													"numoutlets" : 1,
													"outlettype" : [ "" ],
													"patching_rect" : [ 141.599824547767639, 157.235786557197571, 41.0, 22.0 ],
													"text" : "swiz y"
												}

											}
, 											{
												"box" : 												{
													"id" : "obj-31",
													"maxclass" : "newobj",
													"numinlets" : 1,
													"numoutlets" : 1,
													"outlettype" : [ "" ],
													"patching_rect" : [ 96.95663583278656, 157.235786557197571, 41.0, 22.0 ],
													"text" : "swiz x"
												}

											}
, 											{
												"box" : 												{
													"id" : "obj-30",
													"maxclass" : "newobj",
													"numinlets" : 1,
													"numoutlets" : 1,
													"outlettype" : [ "" ],
													"patching_rect" : [ 232.398370385169983, 146.991883873939514, 96.0, 22.0 ],
													"text" : "expr in1.x / in1.y"
												}

											}
, 											{
												"box" : 												{
													"id" : "obj-27",
													"maxclass" : "newobj",
													"numinlets" : 0,
													"numoutlets" : 1,
													"outlettype" : [ "" ],
													"patching_rect" : [ 96.95663583278656, 100.0, 36.0, 22.0 ],
													"text" : "norm"
												}

											}
, 											{
												"box" : 												{
													"id" : "obj-26",
													"maxclass" : "newobj",
													"numinlets" : 2,
													"numoutlets" : 1,
													"outlettype" : [ "" ],
													"patching_rect" : [ 49.99999898215485, 480.066260874271393, 49.0, 22.0 ],
													"text" : "nearest"
												}

											}
, 											{
												"box" : 												{
													"id" : "obj-52",
													"maxclass" : "newobj",
													"numinlets" : 0,
													"numoutlets" : 1,
													"outlettype" : [ "" ],
													"patching_rect" : [ 49.99999898215485, 40.000000995246893, 28.0, 22.0 ],
													"text" : "in 1"
												}

											}
, 											{
												"box" : 												{
													"id" : "obj-53",
													"maxclass" : "newobj",
													"numinlets" : 0,
													"numoutlets" : 1,
													"outlettype" : [ "" ],
													"patching_rect" : [ 232.398367982154838, 40.000000995246893, 28.0, 22.0 ],
													"text" : "in 2"
												}

											}
, 											{
												"box" : 												{
													"id" : "obj-54",
													"maxclass" : "newobj",
													"numinlets" : 1,
													"numoutlets" : 0,
													"patching_rect" : [ 49.999997964309699, 611.613838160781825, 35.0, 22.0 ],
													"text" : "out 1"
												}

											}
 ],
										"lines" : [ 											{
												"patchline" : 												{
													"destination" : [ "obj-7", 0 ],
													"source" : [ "obj-1", 0 ]
												}

											}
, 											{
												"patchline" : 												{
													"destination" : [ "obj-3", 0 ],
													"source" : [ "obj-2", 0 ]
												}

											}
, 											{
												"patchline" : 												{
													"destination" : [ "obj-42", 0 ],
													"source" : [ "obj-26", 0 ]
												}

											}
, 											{
												"patchline" : 												{
													"destination" : [ "obj-31", 0 ],
													"order" : 1,
													"source" : [ "obj-27", 0 ]
												}

											}
, 											{
												"patchline" : 												{
													"destination" : [ "obj-32", 0 ],
													"order" : 0,
													"source" : [ "obj-27", 0 ]
												}

											}
, 											{
												"patchline" : 												{
													"destination" : [ "obj-33", 1 ],
													"order" : 1,
													"source" : [ "obj-3", 0 ]
												}

											}
, 											{
												"patchline" : 												{
													"destination" : [ "obj-43", 0 ],
													"order" : 0,
													"source" : [ "obj-3", 0 ]
												}

											}
, 											{
												"patchline" : 												{
													"destination" : [ "obj-34", 1 ],
													"order" : 1,
													"source" : [ "obj-30", 0 ]
												}

											}
, 											{
												"patchline" : 												{
													"destination" : [ "obj-37", 0 ],
													"order" : 0,
													"source" : [ "obj-30", 0 ]
												}

											}
, 											{
												"patchline" : 												{
													"destination" : [ "obj-1", 0 ],
													"source" : [ "obj-31", 0 ]
												}

											}
, 											{
												"patchline" : 												{
													"destination" : [ "obj-34", 0 ],
													"source" : [ "obj-32", 0 ]
												}

											}
, 											{
												"patchline" : 												{
													"destination" : [ "obj-26", 1 ],
													"source" : [ "obj-33", 0 ]
												}

											}
, 											{
												"patchline" : 												{
													"destination" : [ "obj-41", 0 ],
													"source" : [ "obj-34", 0 ]
												}

											}
, 											{
												"patchline" : 												{
													"destination" : [ "obj-40", 0 ],
													"source" : [ "obj-37", 0 ]
												}

											}
, 											{
												"patchline" : 												{
													"destination" : [ "obj-5", 1 ],
													"source" : [ "obj-4", 0 ]
												}

											}
, 											{
												"patchline" : 												{
													"destination" : [ "obj-41", 1 ],
													"source" : [ "obj-40", 0 ]
												}

											}
, 											{
												"patchline" : 												{
													"destination" : [ "obj-48", 0 ],
													"source" : [ "obj-41", 0 ]
												}

											}
, 											{
												"patchline" : 												{
													"destination" : [ "obj-54", 0 ],
													"source" : [ "obj-42", 0 ]
												}

											}
, 											{
												"patchline" : 												{
													"destination" : [ "obj-5", 0 ],
													"source" : [ "obj-43", 0 ]
												}

											}
, 											{
												"patchline" : 												{
													"destination" : [ "obj-47", 0 ],
													"source" : [ "obj-44", 0 ]
												}

											}
, 											{
												"patchline" : 												{
													"destination" : [ "obj-48", 1 ],
													"order" : 1,
													"source" : [ "obj-47", 0 ]
												}

											}
, 											{
												"patchline" : 												{
													"destination" : [ "obj-50", 0 ],
													"order" : 0,
													"source" : [ "obj-47", 0 ]
												}

											}
, 											{
												"patchline" : 												{
													"destination" : [ "obj-51", 0 ],
													"source" : [ "obj-48", 0 ]
												}

											}
, 											{
												"patchline" : 												{
													"destination" : [ "obj-51", 1 ],
													"source" : [ "obj-49", 0 ]
												}

											}
, 											{
												"patchline" : 												{
													"destination" : [ "obj-42", 1 ],
													"source" : [ "obj-5", 0 ]
												}

											}
, 											{
												"patchline" : 												{
													"destination" : [ "obj-49", 0 ],
													"source" : [ "obj-50", 0 ]
												}

											}
, 											{
												"patchline" : 												{
													"destination" : [ "obj-2", 0 ],
													"source" : [ "obj-51", 0 ]
												}

											}
, 											{
												"patchline" : 												{
													"destination" : [ "obj-26", 0 ],
													"source" : [ "obj-52", 0 ]
												}

											}
, 											{
												"patchline" : 												{
													"destination" : [ "obj-30", 0 ],
													"source" : [ "obj-53", 0 ]
												}

											}
, 											{
												"patchline" : 												{
													"destination" : [ "obj-33", 0 ],
													"order" : 1,
													"source" : [ "obj-7", 0 ]
												}

											}
, 											{
												"patchline" : 												{
													"destination" : [ "obj-4", 0 ],
													"order" : 0,
													"source" : [ "obj-7", 0 ]
												}

											}
 ]
									}
,
									"patching_rect" : [ 513.403043627738953, 187.814432973876961, 67.0, 22.0 ],
									"text" : "gen video3"
								}

							}
, 							{
								"box" : 								{
									"id" : "obj-57",
									"maxclass" : "newobj",
									"numinlets" : 2,
									"numoutlets" : 1,
									"outlettype" : [ "" ],
									"patcher" : 									{
										"fileversion" : 1,
										"appversion" : 										{
											"major" : 8,
											"minor" : 1,
											"revision" : 11,
											"architecture" : "x64",
											"modernui" : 1
										}
,
										"classnamespace" : "jit.gen",
										"rect" : [ 80.0, 95.0, 884.0, 768.0 ],
										"bglocked" : 0,
										"openinpresentation" : 0,
										"default_fontsize" : 12.0,
										"default_fontface" : 0,
										"default_fontname" : "Arial",
										"gridonopen" : 1,
										"gridsize" : [ 15.0, 15.0 ],
										"gridsnaponopen" : 1,
										"objectsnaponopen" : 1,
										"statusbarvisible" : 2,
										"toolbarvisible" : 1,
										"lefttoolbarpinned" : 0,
										"toptoolbarpinned" : 0,
										"righttoolbarpinned" : 0,
										"bottomtoolbarpinned" : 0,
										"toolbars_unpinned_last_save" : 0,
										"tallnewobj" : 0,
										"boxanimatetime" : 200,
										"enablehscroll" : 1,
										"enablevscroll" : 1,
										"devicewidth" : 0.0,
										"description" : "",
										"digest" : "",
										"tags" : "",
										"style" : "",
										"subpatcher_template" : "",
										"assistshowspatchername" : 0,
										"boxes" : [ 											{
												"box" : 												{
													"id" : "obj-7",
													"maxclass" : "newobj",
													"numinlets" : 1,
													"numoutlets" : 1,
													"outlettype" : [ "" ],
													"patching_rect" : [ 96.710525393486023, 370.394733309745789, 23.0, 22.0 ],
													"text" : "- 1"
												}

											}
, 											{
												"box" : 												{
													"id" : "obj-5",
													"maxclass" : "newobj",
													"numinlets" : 2,
													"numoutlets" : 1,
													"outlettype" : [ "" ],
													"patching_rect" : [ 141.599824547767639, 564.473678827285767, 29.5, 22.0 ],
													"text" : "*"
												}

											}
, 											{
												"box" : 												{
													"id" : "obj-4",
													"maxclass" : "newobj",
													"numinlets" : 1,
													"numoutlets" : 1,
													"outlettype" : [ "" ],
													"patching_rect" : [ 309.813004612922668, 529.61384129524231, 154.0, 22.0 ],
													"text" : "expr (in1 >= 0) && (in1 < 1)"
												}

											}
, 											{
												"box" : 												{
													"id" : "obj-3",
													"maxclass" : "newobj",
													"numinlets" : 1,
													"numoutlets" : 1,
													"outlettype" : [ "" ],
													"patching_rect" : [ 141.599824547767639, 390.789469957351685, 33.0, 22.0 ],
													"text" : "- 0.5"
												}

											}
, 											{
												"box" : 												{
													"id" : "obj-2",
													"maxclass" : "newobj",
													"numinlets" : 1,
													"numoutlets" : 1,
													"outlettype" : [ "" ],
													"patching_rect" : [ 141.599824547767639, 353.923853039741516, 23.0, 22.0 ],
													"text" : "* 2"
												}

											}
, 											{
												"box" : 												{
													"id" : "obj-1",
													"maxclass" : "newobj",
													"numinlets" : 1,
													"numoutlets" : 1,
													"outlettype" : [ "" ],
													"patching_rect" : [ 96.95663583278656, 307.236839175224304, 23.0, 22.0 ],
													"text" : "* 2"
												}

											}
, 											{
												"box" : 												{
													"id" : "obj-51",
													"maxclass" : "newobj",
													"numinlets" : 2,
													"numoutlets" : 1,
													"outlettype" : [ "" ],
													"patching_rect" : [ 141.599824547767639, 317.235790371894836, 29.5, 22.0 ],
													"text" : "-"
												}

											}
, 											{
												"box" : 												{
													"id" : "obj-49",
													"maxclass" : "newobj",
													"numinlets" : 1,
													"numoutlets" : 1,
													"outlettype" : [ "" ],
													"patching_rect" : [ 375.813004612922668, 280.650423645973206, 22.0, 22.0 ],
													"text" : "/ 2"
												}

											}
, 											{
												"box" : 												{
													"id" : "obj-50",
													"maxclass" : "newobj",
													"numinlets" : 1,
													"numoutlets" : 1,
													"outlettype" : [ "" ],
													"patching_rect" : [ 375.813004612922668, 252.357740044593811, 23.0, 22.0 ],
													"text" : "- 1"
												}

											}
, 											{
												"box" : 												{
													"id" : "obj-48",
													"maxclass" : "newobj",
													"numinlets" : 2,
													"numoutlets" : 1,
													"outlettype" : [ "" ],
													"patching_rect" : [ 141.599824547767639, 275.2845698595047, 29.5, 22.0 ],
													"text" : "*"
												}

											}
, 											{
												"box" : 												{
													"id" : "obj-47",
													"maxclass" : "newobj",
													"numinlets" : 1,
													"numoutlets" : 1,
													"outlettype" : [ "" ],
													"patching_rect" : [ 375.813004612922668, 206.504080414772034, 96.0, 22.0 ],
													"text" : "expr in1.y / in1.x"
												}

											}
, 											{
												"box" : 												{
													"id" : "obj-46",
													"maxclass" : "comment",
													"numinlets" : 1,
													"numoutlets" : 0,
													"patching_rect" : [ 364.313004612922668, 146.991883873939514, 140.0, 20.0 ],
													"text" : "dimension of the window"
												}

											}
, 											{
												"box" : 												{
													"id" : "obj-44",
													"maxclass" : "newobj",
													"numinlets" : 0,
													"numoutlets" : 1,
													"outlettype" : [ "" ],
													"patching_rect" : [ 375.813004612922668, 173.284567475318909, 28.0, 22.0 ],
													"text" : "dim"
												}

											}
, 											{
												"box" : 												{
													"id" : "obj-43",
													"maxclass" : "newobj",
													"numinlets" : 1,
													"numoutlets" : 1,
													"outlettype" : [ "" ],
													"patching_rect" : [ 141.599824547767639, 529.61384129524231, 154.0, 22.0 ],
													"text" : "expr (in1 >= 0) && (in1 < 1)"
												}

											}
, 											{
												"box" : 												{
													"id" : "obj-42",
													"maxclass" : "newobj",
													"numinlets" : 2,
													"numoutlets" : 1,
													"outlettype" : [ "" ],
													"patching_rect" : [ 49.99999898215485, 529.61384129524231, 29.5, 22.0 ],
													"text" : "*"
												}

											}
, 											{
												"box" : 												{
													"id" : "obj-41",
													"maxclass" : "newobj",
													"numinlets" : 2,
													"numoutlets" : 1,
													"outlettype" : [ "" ],
													"patching_rect" : [ 141.599824547767639, 244.065056920051575, 29.5, 22.0 ],
													"text" : "-"
												}

											}
, 											{
												"box" : 												{
													"id" : "obj-40",
													"maxclass" : "newobj",
													"numinlets" : 1,
													"numoutlets" : 1,
													"outlettype" : [ "" ],
													"patching_rect" : [ 232.398370385169983, 244.065056920051575, 22.0, 22.0 ],
													"text" : "/ 2"
												}

											}
, 											{
												"box" : 												{
													"id" : "obj-39",
													"maxclass" : "comment",
													"numinlets" : 1,
													"numoutlets" : 0,
													"patching_rect" : [ 272.819339871406555, 215.77237331867218, 39.0, 20.0 ],
													"text" : "0.333"
												}

											}
, 											{
												"box" : 												{
													"id" : "obj-37",
													"maxclass" : "newobj",
													"numinlets" : 1,
													"numoutlets" : 1,
													"outlettype" : [ "" ],
													"patching_rect" : [ 232.398370385169983, 215.77237331867218, 23.0, 22.0 ],
													"text" : "- 1"
												}

											}
, 											{
												"box" : 												{
													"id" : "obj-36",
													"maxclass" : "comment",
													"numinlets" : 1,
													"numoutlets" : 0,
													"patching_rect" : [ 244.038851380348206, 175.284567475318909, 39.0, 20.0 ],
													"text" : "1.333"
												}

											}
, 											{
												"box" : 												{
													"id" : "obj-34",
													"maxclass" : "newobj",
													"numinlets" : 2,
													"numoutlets" : 1,
													"outlettype" : [ "" ],
													"patching_rect" : [ 141.599824547767639, 192.357738614082336, 29.5, 22.0 ],
													"text" : "*"
												}

											}
, 											{
												"box" : 												{
													"id" : "obj-33",
													"maxclass" : "newobj",
													"numinlets" : 2,
													"numoutlets" : 1,
													"outlettype" : [ "" ],
													"patching_rect" : [ 96.95663583278656, 447.344904780387878, 47.0, 22.0 ],
													"text" : "vec 0 0"
												}

											}
, 											{
												"box" : 												{
													"id" : "obj-32",
													"maxclass" : "newobj",
													"numinlets" : 1,
													"numoutlets" : 1,
													"outlettype" : [ "" ],
													"patching_rect" : [ 141.599824547767639, 157.235786557197571, 41.0, 22.0 ],
													"text" : "swiz y"
												}

											}
, 											{
												"box" : 												{
													"id" : "obj-31",
													"maxclass" : "newobj",
													"numinlets" : 1,
													"numoutlets" : 1,
													"outlettype" : [ "" ],
													"patching_rect" : [ 96.95663583278656, 157.235786557197571, 41.0, 22.0 ],
													"text" : "swiz x"
												}

											}
, 											{
												"box" : 												{
													"id" : "obj-30",
													"maxclass" : "newobj",
													"numinlets" : 1,
													"numoutlets" : 1,
													"outlettype" : [ "" ],
													"patching_rect" : [ 232.398370385169983, 146.991883873939514, 96.0, 22.0 ],
													"text" : "expr in1.x / in1.y"
												}

											}
, 											{
												"box" : 												{
													"id" : "obj-27",
													"maxclass" : "newobj",
													"numinlets" : 0,
													"numoutlets" : 1,
													"outlettype" : [ "" ],
													"patching_rect" : [ 96.95663583278656, 100.0, 36.0, 22.0 ],
													"text" : "norm"
												}

											}
, 											{
												"box" : 												{
													"id" : "obj-26",
													"maxclass" : "newobj",
													"numinlets" : 2,
													"numoutlets" : 1,
													"outlettype" : [ "" ],
													"patching_rect" : [ 49.99999898215485, 480.066260874271393, 49.0, 22.0 ],
													"text" : "nearest"
												}

											}
, 											{
												"box" : 												{
													"id" : "obj-52",
													"maxclass" : "newobj",
													"numinlets" : 0,
													"numoutlets" : 1,
													"outlettype" : [ "" ],
													"patching_rect" : [ 49.99999898215485, 40.000000995246893, 28.0, 22.0 ],
													"text" : "in 1"
												}

											}
, 											{
												"box" : 												{
													"id" : "obj-53",
													"maxclass" : "newobj",
													"numinlets" : 0,
													"numoutlets" : 1,
													"outlettype" : [ "" ],
													"patching_rect" : [ 232.398367982154838, 40.000000995246893, 28.0, 22.0 ],
													"text" : "in 2"
												}

											}
, 											{
												"box" : 												{
													"id" : "obj-54",
													"maxclass" : "newobj",
													"numinlets" : 1,
													"numoutlets" : 0,
													"patching_rect" : [ 49.999997964309699, 611.613838160781825, 35.0, 22.0 ],
													"text" : "out 1"
												}

											}
 ],
										"lines" : [ 											{
												"patchline" : 												{
													"destination" : [ "obj-7", 0 ],
													"source" : [ "obj-1", 0 ]
												}

											}
, 											{
												"patchline" : 												{
													"destination" : [ "obj-3", 0 ],
													"source" : [ "obj-2", 0 ]
												}

											}
, 											{
												"patchline" : 												{
													"destination" : [ "obj-42", 0 ],
													"source" : [ "obj-26", 0 ]
												}

											}
, 											{
												"patchline" : 												{
													"destination" : [ "obj-31", 0 ],
													"order" : 1,
													"source" : [ "obj-27", 0 ]
												}

											}
, 											{
												"patchline" : 												{
													"destination" : [ "obj-32", 0 ],
													"order" : 0,
													"source" : [ "obj-27", 0 ]
												}

											}
, 											{
												"patchline" : 												{
													"destination" : [ "obj-33", 1 ],
													"order" : 1,
													"source" : [ "obj-3", 0 ]
												}

											}
, 											{
												"patchline" : 												{
													"destination" : [ "obj-43", 0 ],
													"order" : 0,
													"source" : [ "obj-3", 0 ]
												}

											}
, 											{
												"patchline" : 												{
													"destination" : [ "obj-34", 1 ],
													"order" : 1,
													"source" : [ "obj-30", 0 ]
												}

											}
, 											{
												"patchline" : 												{
													"destination" : [ "obj-37", 0 ],
													"order" : 0,
													"source" : [ "obj-30", 0 ]
												}

											}
, 											{
												"patchline" : 												{
													"destination" : [ "obj-1", 0 ],
													"source" : [ "obj-31", 0 ]
												}

											}
, 											{
												"patchline" : 												{
													"destination" : [ "obj-34", 0 ],
													"source" : [ "obj-32", 0 ]
												}

											}
, 											{
												"patchline" : 												{
													"destination" : [ "obj-26", 1 ],
													"source" : [ "obj-33", 0 ]
												}

											}
, 											{
												"patchline" : 												{
													"destination" : [ "obj-41", 0 ],
													"source" : [ "obj-34", 0 ]
												}

											}
, 											{
												"patchline" : 												{
													"destination" : [ "obj-40", 0 ],
													"source" : [ "obj-37", 0 ]
												}

											}
, 											{
												"patchline" : 												{
													"destination" : [ "obj-5", 1 ],
													"source" : [ "obj-4", 0 ]
												}

											}
, 											{
												"patchline" : 												{
													"destination" : [ "obj-41", 1 ],
													"source" : [ "obj-40", 0 ]
												}

											}
, 											{
												"patchline" : 												{
													"destination" : [ "obj-48", 0 ],
													"source" : [ "obj-41", 0 ]
												}

											}
, 											{
												"patchline" : 												{
													"destination" : [ "obj-54", 0 ],
													"source" : [ "obj-42", 0 ]
												}

											}
, 											{
												"patchline" : 												{
													"destination" : [ "obj-5", 0 ],
													"source" : [ "obj-43", 0 ]
												}

											}
, 											{
												"patchline" : 												{
													"destination" : [ "obj-47", 0 ],
													"source" : [ "obj-44", 0 ]
												}

											}
, 											{
												"patchline" : 												{
													"destination" : [ "obj-48", 1 ],
													"order" : 1,
													"source" : [ "obj-47", 0 ]
												}

											}
, 											{
												"patchline" : 												{
													"destination" : [ "obj-50", 0 ],
													"order" : 0,
													"source" : [ "obj-47", 0 ]
												}

											}
, 											{
												"patchline" : 												{
													"destination" : [ "obj-51", 0 ],
													"source" : [ "obj-48", 0 ]
												}

											}
, 											{
												"patchline" : 												{
													"destination" : [ "obj-51", 1 ],
													"source" : [ "obj-49", 0 ]
												}

											}
, 											{
												"patchline" : 												{
													"destination" : [ "obj-42", 1 ],
													"source" : [ "obj-5", 0 ]
												}

											}
, 											{
												"patchline" : 												{
													"destination" : [ "obj-49", 0 ],
													"source" : [ "obj-50", 0 ]
												}

											}
, 											{
												"patchline" : 												{
													"destination" : [ "obj-2", 0 ],
													"source" : [ "obj-51", 0 ]
												}

											}
, 											{
												"patchline" : 												{
													"destination" : [ "obj-26", 0 ],
													"source" : [ "obj-52", 0 ]
												}

											}
, 											{
												"patchline" : 												{
													"destination" : [ "obj-30", 0 ],
													"source" : [ "obj-53", 0 ]
												}

											}
, 											{
												"patchline" : 												{
													"destination" : [ "obj-33", 0 ],
													"order" : 1,
													"source" : [ "obj-7", 0 ]
												}

											}
, 											{
												"patchline" : 												{
													"destination" : [ "obj-4", 0 ],
													"order" : 0,
													"source" : [ "obj-7", 0 ]
												}

											}
 ]
									}
,
									"patching_rect" : [ 300.403043627738953, 187.814432973876961, 67.0, 22.0 ],
									"text" : "gen video2"
								}

							}
, 							{
								"box" : 								{
									"id" : "obj-55",
									"maxclass" : "newobj",
									"numinlets" : 2,
									"numoutlets" : 1,
									"outlettype" : [ "" ],
									"patcher" : 									{
										"fileversion" : 1,
										"appversion" : 										{
											"major" : 8,
											"minor" : 1,
											"revision" : 11,
											"architecture" : "x64",
											"modernui" : 1
										}
,
										"classnamespace" : "jit.gen",
										"rect" : [ 628.0, 119.0, 884.0, 768.0 ],
										"bglocked" : 0,
										"openinpresentation" : 0,
										"default_fontsize" : 12.0,
										"default_fontface" : 0,
										"default_fontname" : "Arial",
										"gridonopen" : 1,
										"gridsize" : [ 15.0, 15.0 ],
										"gridsnaponopen" : 1,
										"objectsnaponopen" : 1,
										"statusbarvisible" : 2,
										"toolbarvisible" : 1,
										"lefttoolbarpinned" : 0,
										"toptoolbarpinned" : 0,
										"righttoolbarpinned" : 0,
										"bottomtoolbarpinned" : 0,
										"toolbars_unpinned_last_save" : 0,
										"tallnewobj" : 0,
										"boxanimatetime" : 200,
										"enablehscroll" : 1,
										"enablevscroll" : 1,
										"devicewidth" : 0.0,
										"description" : "",
										"digest" : "",
										"tags" : "",
										"style" : "",
										"subpatcher_template" : "",
										"assistshowspatchername" : 0,
										"boxes" : [ 											{
												"box" : 												{
													"id" : "obj-5",
													"maxclass" : "newobj",
													"numinlets" : 2,
													"numoutlets" : 1,
													"outlettype" : [ "" ],
													"patching_rect" : [ 141.599824547767639, 564.473678827285767, 29.5, 22.0 ],
													"text" : "*"
												}

											}
, 											{
												"box" : 												{
													"id" : "obj-4",
													"maxclass" : "newobj",
													"numinlets" : 1,
													"numoutlets" : 1,
													"outlettype" : [ "" ],
													"patching_rect" : [ 309.813004612922668, 529.61384129524231, 154.0, 22.0 ],
													"text" : "expr (in1 >= 0) && (in1 < 1)"
												}

											}
, 											{
												"box" : 												{
													"id" : "obj-3",
													"maxclass" : "newobj",
													"numinlets" : 1,
													"numoutlets" : 1,
													"outlettype" : [ "" ],
													"patching_rect" : [ 141.599824547767639, 390.789469957351685, 116.0, 22.0 ],
													"text" : "- (numMovies/2)-0.5"
												}

											}
, 											{
												"box" : 												{
													"id" : "obj-2",
													"maxclass" : "newobj",
													"numinlets" : 1,
													"numoutlets" : 1,
													"outlettype" : [ "" ],
													"patching_rect" : [ 141.599824547767639, 353.923853039741516, 78.0, 22.0 ],
													"text" : "* numMovies"
												}

											}
, 											{
												"box" : 												{
													"id" : "obj-1",
													"maxclass" : "newobj",
													"numinlets" : 1,
													"numoutlets" : 1,
													"outlettype" : [ "" ],
													"patching_rect" : [ 59.95663583278656, 317.235790371894836, 78.0, 22.0 ],
													"text" : "* numMovies"
												}

											}
, 											{
												"box" : 												{
													"id" : "obj-51",
													"maxclass" : "newobj",
													"numinlets" : 2,
													"numoutlets" : 1,
													"outlettype" : [ "" ],
													"patching_rect" : [ 141.599824547767639, 317.235790371894836, 29.5, 22.0 ],
													"text" : "-"
												}

											}
, 											{
												"box" : 												{
													"id" : "obj-49",
													"maxclass" : "newobj",
													"numinlets" : 1,
													"numoutlets" : 1,
													"outlettype" : [ "" ],
													"patching_rect" : [ 375.813004612922668, 280.650423645973206, 22.0, 22.0 ],
													"text" : "/ 2"
												}

											}
, 											{
												"box" : 												{
													"id" : "obj-50",
													"maxclass" : "newobj",
													"numinlets" : 1,
													"numoutlets" : 1,
													"outlettype" : [ "" ],
													"patching_rect" : [ 375.813004612922668, 252.357740044593811, 23.0, 22.0 ],
													"text" : "- 1"
												}

											}
, 											{
												"box" : 												{
													"id" : "obj-48",
													"maxclass" : "newobj",
													"numinlets" : 2,
													"numoutlets" : 1,
													"outlettype" : [ "" ],
													"patching_rect" : [ 141.599824547767639, 275.2845698595047, 29.5, 22.0 ],
													"text" : "*"
												}

											}
, 											{
												"box" : 												{
													"id" : "obj-47",
													"maxclass" : "newobj",
													"numinlets" : 1,
													"numoutlets" : 1,
													"outlettype" : [ "" ],
													"patching_rect" : [ 375.813004612922668, 206.504080414772034, 96.0, 22.0 ],
													"text" : "expr in1.y / in1.x"
												}

											}
, 											{
												"box" : 												{
													"id" : "obj-46",
													"maxclass" : "comment",
													"numinlets" : 1,
													"numoutlets" : 0,
													"patching_rect" : [ 364.313004612922668, 146.991883873939514, 140.0, 20.0 ],
													"text" : "dimension of the window"
												}

											}
, 											{
												"box" : 												{
													"id" : "obj-44",
													"maxclass" : "newobj",
													"numinlets" : 0,
													"numoutlets" : 1,
													"outlettype" : [ "" ],
													"patching_rect" : [ 375.813004612922668, 173.284567475318909, 28.0, 22.0 ],
													"text" : "dim"
												}

											}
, 											{
												"box" : 												{
													"id" : "obj-43",
													"maxclass" : "newobj",
													"numinlets" : 1,
													"numoutlets" : 1,
													"outlettype" : [ "" ],
													"patching_rect" : [ 141.599824547767639, 529.61384129524231, 154.0, 22.0 ],
													"text" : "expr (in1 >= 0) && (in1 < 1)"
												}

											}
, 											{
												"box" : 												{
													"id" : "obj-42",
													"maxclass" : "newobj",
													"numinlets" : 2,
													"numoutlets" : 1,
													"outlettype" : [ "" ],
													"patching_rect" : [ 49.99999898215485, 529.61384129524231, 29.5, 22.0 ],
													"text" : "*"
												}

											}
, 											{
												"box" : 												{
													"id" : "obj-41",
													"maxclass" : "newobj",
													"numinlets" : 2,
													"numoutlets" : 1,
													"outlettype" : [ "" ],
													"patching_rect" : [ 141.599824547767639, 244.065056920051575, 29.5, 22.0 ],
													"text" : "-"
												}

											}
, 											{
												"box" : 												{
													"id" : "obj-40",
													"maxclass" : "newobj",
													"numinlets" : 1,
													"numoutlets" : 1,
													"outlettype" : [ "" ],
													"patching_rect" : [ 232.398370385169983, 244.065056920051575, 22.0, 22.0 ],
													"text" : "/ 2"
												}

											}
, 											{
												"box" : 												{
													"id" : "obj-39",
													"maxclass" : "comment",
													"numinlets" : 1,
													"numoutlets" : 0,
													"patching_rect" : [ 272.819339871406555, 215.77237331867218, 39.0, 20.0 ],
													"text" : "0.333"
												}

											}
, 											{
												"box" : 												{
													"id" : "obj-37",
													"maxclass" : "newobj",
													"numinlets" : 1,
													"numoutlets" : 1,
													"outlettype" : [ "" ],
													"patching_rect" : [ 232.398370385169983, 215.77237331867218, 23.0, 22.0 ],
													"text" : "- 1"
												}

											}
, 											{
												"box" : 												{
													"id" : "obj-36",
													"maxclass" : "comment",
													"numinlets" : 1,
													"numoutlets" : 0,
													"patching_rect" : [ 244.038851380348206, 175.284567475318909, 39.0, 20.0 ],
													"text" : "1.333"
												}

											}
, 											{
												"box" : 												{
													"id" : "obj-34",
													"maxclass" : "newobj",
													"numinlets" : 2,
													"numoutlets" : 1,
													"outlettype" : [ "" ],
													"patching_rect" : [ 141.599824547767639, 192.357738614082336, 29.5, 22.0 ],
													"text" : "*"
												}

											}
, 											{
												"box" : 												{
													"id" : "obj-33",
													"maxclass" : "newobj",
													"numinlets" : 2,
													"numoutlets" : 1,
													"outlettype" : [ "" ],
													"patching_rect" : [ 96.95663583278656, 447.344904780387878, 47.0, 22.0 ],
													"text" : "vec 0 0"
												}

											}
, 											{
												"box" : 												{
													"id" : "obj-32",
													"maxclass" : "newobj",
													"numinlets" : 1,
													"numoutlets" : 1,
													"outlettype" : [ "" ],
													"patching_rect" : [ 141.599824547767639, 157.235786557197571, 41.0, 22.0 ],
													"text" : "swiz y"
												}

											}
, 											{
												"box" : 												{
													"id" : "obj-31",
													"maxclass" : "newobj",
													"numinlets" : 1,
													"numoutlets" : 1,
													"outlettype" : [ "" ],
													"patching_rect" : [ 96.95663583278656, 157.235786557197571, 41.0, 22.0 ],
													"text" : "swiz x"
												}

											}
, 											{
												"box" : 												{
													"id" : "obj-30",
													"maxclass" : "newobj",
													"numinlets" : 1,
													"numoutlets" : 1,
													"outlettype" : [ "" ],
													"patching_rect" : [ 232.398370385169983, 146.991883873939514, 96.0, 22.0 ],
													"text" : "expr in1.x / in1.y"
												}

											}
, 											{
												"box" : 												{
													"id" : "obj-27",
													"maxclass" : "newobj",
													"numinlets" : 0,
													"numoutlets" : 1,
													"outlettype" : [ "" ],
													"patching_rect" : [ 96.95663583278656, 100.0, 36.0, 22.0 ],
													"text" : "norm"
												}

											}
, 											{
												"box" : 												{
													"id" : "obj-26",
													"maxclass" : "newobj",
													"numinlets" : 2,
													"numoutlets" : 1,
													"outlettype" : [ "" ],
													"patching_rect" : [ 49.99999898215485, 480.066260874271393, 49.0, 22.0 ],
													"text" : "nearest"
												}

											}
, 											{
												"box" : 												{
													"id" : "obj-52",
													"maxclass" : "newobj",
													"numinlets" : 0,
													"numoutlets" : 1,
													"outlettype" : [ "" ],
													"patching_rect" : [ 49.99999898215485, 40.000000995246893, 28.0, 22.0 ],
													"text" : "in 1"
												}

											}
, 											{
												"box" : 												{
													"id" : "obj-53",
													"maxclass" : "newobj",
													"numinlets" : 0,
													"numoutlets" : 1,
													"outlettype" : [ "" ],
													"patching_rect" : [ 232.398367982154838, 40.000000995246893, 28.0, 22.0 ],
													"text" : "in 2"
												}

											}
, 											{
												"box" : 												{
													"id" : "obj-54",
													"maxclass" : "newobj",
													"numinlets" : 1,
													"numoutlets" : 0,
													"patching_rect" : [ 49.999997964309699, 611.613838160781825, 35.0, 22.0 ],
													"text" : "out 1"
												}

											}
 ],
										"lines" : [ 											{
												"patchline" : 												{
													"destination" : [ "obj-33", 0 ],
													"order" : 1,
													"source" : [ "obj-1", 0 ]
												}

											}
, 											{
												"patchline" : 												{
													"destination" : [ "obj-4", 0 ],
													"order" : 0,
													"source" : [ "obj-1", 0 ]
												}

											}
, 											{
												"patchline" : 												{
													"destination" : [ "obj-3", 0 ],
													"source" : [ "obj-2", 0 ]
												}

											}
, 											{
												"patchline" : 												{
													"destination" : [ "obj-42", 0 ],
													"source" : [ "obj-26", 0 ]
												}

											}
, 											{
												"patchline" : 												{
													"destination" : [ "obj-31", 0 ],
													"order" : 1,
													"source" : [ "obj-27", 0 ]
												}

											}
, 											{
												"patchline" : 												{
													"destination" : [ "obj-32", 0 ],
													"order" : 0,
													"source" : [ "obj-27", 0 ]
												}

											}
, 											{
												"patchline" : 												{
													"destination" : [ "obj-33", 1 ],
													"order" : 1,
													"source" : [ "obj-3", 0 ]
												}

											}
, 											{
												"patchline" : 												{
													"destination" : [ "obj-43", 0 ],
													"order" : 0,
													"source" : [ "obj-3", 0 ]
												}

											}
, 											{
												"patchline" : 												{
													"destination" : [ "obj-34", 1 ],
													"order" : 1,
													"source" : [ "obj-30", 0 ]
												}

											}
, 											{
												"patchline" : 												{
													"destination" : [ "obj-37", 0 ],
													"order" : 0,
													"source" : [ "obj-30", 0 ]
												}

											}
, 											{
												"patchline" : 												{
													"destination" : [ "obj-1", 0 ],
													"source" : [ "obj-31", 0 ]
												}

											}
, 											{
												"patchline" : 												{
													"destination" : [ "obj-34", 0 ],
													"source" : [ "obj-32", 0 ]
												}

											}
, 											{
												"patchline" : 												{
													"destination" : [ "obj-26", 1 ],
													"source" : [ "obj-33", 0 ]
												}

											}
, 											{
												"patchline" : 												{
													"destination" : [ "obj-41", 0 ],
													"source" : [ "obj-34", 0 ]
												}

											}
, 											{
												"patchline" : 												{
													"destination" : [ "obj-40", 0 ],
													"source" : [ "obj-37", 0 ]
												}

											}
, 											{
												"patchline" : 												{
													"destination" : [ "obj-5", 1 ],
													"source" : [ "obj-4", 0 ]
												}

											}
, 											{
												"patchline" : 												{
													"destination" : [ "obj-41", 1 ],
													"source" : [ "obj-40", 0 ]
												}

											}
, 											{
												"patchline" : 												{
													"destination" : [ "obj-48", 0 ],
													"source" : [ "obj-41", 0 ]
												}

											}
, 											{
												"patchline" : 												{
													"destination" : [ "obj-54", 0 ],
													"source" : [ "obj-42", 0 ]
												}

											}
, 											{
												"patchline" : 												{
													"destination" : [ "obj-5", 0 ],
													"source" : [ "obj-43", 0 ]
												}

											}
, 											{
												"patchline" : 												{
													"destination" : [ "obj-47", 0 ],
													"source" : [ "obj-44", 0 ]
												}

											}
, 											{
												"patchline" : 												{
													"destination" : [ "obj-48", 1 ],
													"order" : 1,
													"source" : [ "obj-47", 0 ]
												}

											}
, 											{
												"patchline" : 												{
													"destination" : [ "obj-50", 0 ],
													"order" : 0,
													"source" : [ "obj-47", 0 ]
												}

											}
, 											{
												"patchline" : 												{
													"destination" : [ "obj-51", 0 ],
													"source" : [ "obj-48", 0 ]
												}

											}
, 											{
												"patchline" : 												{
													"destination" : [ "obj-51", 1 ],
													"source" : [ "obj-49", 0 ]
												}

											}
, 											{
												"patchline" : 												{
													"destination" : [ "obj-42", 1 ],
													"source" : [ "obj-5", 0 ]
												}

											}
, 											{
												"patchline" : 												{
													"destination" : [ "obj-49", 0 ],
													"source" : [ "obj-50", 0 ]
												}

											}
, 											{
												"patchline" : 												{
													"destination" : [ "obj-2", 0 ],
													"source" : [ "obj-51", 0 ]
												}

											}
, 											{
												"patchline" : 												{
													"destination" : [ "obj-26", 0 ],
													"source" : [ "obj-52", 0 ]
												}

											}
, 											{
												"patchline" : 												{
													"destination" : [ "obj-30", 0 ],
													"source" : [ "obj-53", 0 ]
												}

											}
 ]
									}
,
									"patching_rect" : [ 54.814813017845154, 180.461491937652596, 67.0, 22.0 ],
									"text" : "gen video1"
								}

							}
, 							{
								"box" : 								{
									"id" : "obj-29",
									"maxclass" : "comment",
									"numinlets" : 1,
									"numoutlets" : 0,
									"patching_rect" : [ 117.814813017845154, 124.3546062707901, 121.0, 20.0 ],
									"text" : "dimension first movie"
								}

							}
, 							{
								"box" : 								{
									"id" : "obj-25",
									"maxclass" : "newobj",
									"numinlets" : 1,
									"numoutlets" : 1,
									"outlettype" : [ "" ],
									"patching_rect" : [ 54.814813017845154, 501.192811250686646, 29.0, 22.0 ],
									"text" : "% 1"
								}

							}
, 							{
								"box" : 								{
									"id" : "obj-20",
									"maxclass" : "newobj",
									"numinlets" : 1,
									"numoutlets" : 1,
									"outlettype" : [ "" ],
									"patching_rect" : [ 54.814813017845154, 471.192809998989105, 30.0, 22.0 ],
									"text" : "* 10"
								}

							}
, 							{
								"box" : 								{
									"id" : "obj-19",
									"maxclass" : "newobj",
									"numinlets" : 0,
									"numoutlets" : 1,
									"outlettype" : [ "" ],
									"patching_rect" : [ 54.814813017845154, 320.598038673400879, 36.0, 22.0 ],
									"text" : "norm"
								}

							}
, 							{
								"box" : 								{
									"id" : "obj-18",
									"maxclass" : "newobj",
									"numinlets" : 2,
									"numoutlets" : 1,
									"outlettype" : [ "" ],
									"patching_rect" : [ 54.814813017845154, 439.545750856399536, 47.0, 22.0 ],
									"text" : "vec 0 0"
								}

							}
, 							{
								"box" : 								{
									"id" : "obj-17",
									"maxclass" : "newobj",
									"numinlets" : 2,
									"numoutlets" : 1,
									"outlettype" : [ "" ],
									"patching_rect" : [ 115.991286158561707, 404.303930819034576, 29.5, 22.0 ],
									"text" : "*"
								}

							}
, 							{
								"box" : 								{
									"id" : "obj-16",
									"maxclass" : "newobj",
									"numinlets" : 1,
									"numoutlets" : 1,
									"outlettype" : [ "" ],
									"patching_rect" : [ 115.991286158561707, 356.225491285324097, 41.0, 22.0 ],
									"text" : "swiz y"
								}

							}
, 							{
								"box" : 								{
									"id" : "obj-15",
									"maxclass" : "newobj",
									"numinlets" : 1,
									"numoutlets" : 1,
									"outlettype" : [ "" ],
									"patching_rect" : [ 54.814813017845154, 356.225491285324097, 41.0, 22.0 ],
									"text" : "swiz x"
								}

							}
, 							{
								"box" : 								{
									"id" : "obj-69",
									"maxclass" : "comment",
									"numinlets" : 1,
									"numoutlets" : 0,
									"patching_rect" : [ 249.345299065113068, 320.598038673400879, 71.0, 20.0 ],
									"text" : "dim finestra"
								}

							}
, 							{
								"box" : 								{
									"id" : "obj-22",
									"maxclass" : "newobj",
									"numinlets" : 2,
									"numoutlets" : 1,
									"outlettype" : [ "" ],
									"patching_rect" : [ 215.845299065113068, 404.303930819034576, 29.5, 22.0 ],
									"text" : "/"
								}

							}
, 							{
								"box" : 								{
									"id" : "obj-23",
									"maxclass" : "newobj",
									"numinlets" : 1,
									"numoutlets" : 1,
									"outlettype" : [ "" ],
									"patching_rect" : [ 235.845299065113068, 356.225491285324097, 41.0, 22.0 ],
									"text" : "swiz y"
								}

							}
, 							{
								"box" : 								{
									"id" : "obj-24",
									"maxclass" : "newobj",
									"numinlets" : 1,
									"numoutlets" : 1,
									"outlettype" : [ "" ],
									"patching_rect" : [ 192.845299065113068, 356.225491285324097, 41.0, 22.0 ],
									"text" : "swiz x"
								}

							}
, 							{
								"box" : 								{
									"id" : "obj-21",
									"maxclass" : "newobj",
									"numinlets" : 0,
									"numoutlets" : 1,
									"outlettype" : [ "" ],
									"patching_rect" : [ 217.345299065113068, 320.598038673400879, 28.0, 22.0 ],
									"text" : "dim"
								}

							}
, 							{
								"box" : 								{
									"id" : "obj-13",
									"maxclass" : "newobj",
									"numinlets" : 1,
									"numoutlets" : 1,
									"outlettype" : [ "" ],
									"patching_rect" : [ 54.814813017845154, 534.940889954566956, 174.0, 22.0 ],
									"text" : "expr (in1.x > 0.2) * (in1.y > 0.2)"
								}

							}
, 							{
								"box" : 								{
									"id" : "obj-3",
									"maxclass" : "newobj",
									"numinlets" : 1,
									"numoutlets" : 0,
									"patching_rect" : [ 54.814813017845154, 565.587928652763367, 35.0, 22.0 ],
									"text" : "out 2"
								}

							}
, 							{
								"box" : 								{
									"id" : "obj-72",
									"maxclass" : "newobj",
									"numinlets" : 0,
									"numoutlets" : 1,
									"outlettype" : [ "" ],
									"patching_rect" : [ 119.814813017845154, 52.532681405544281, 117.0, 22.0 ],
									"text" : "param numMovies 2"
								}

							}
, 							{
								"box" : 								{
									"id" : "obj-71",
									"maxclass" : "newobj",
									"numinlets" : 0,
									"numoutlets" : 1,
									"outlettype" : [ "" ],
									"patching_rect" : [ 732.000001311302185, 105.925925731658936, 151.0, 22.0 ],
									"text" : "param movie_4_dim 10 10"
								}

							}
, 							{
								"box" : 								{
									"id" : "obj-68",
									"maxclass" : "newobj",
									"numinlets" : 0,
									"numoutlets" : 1,
									"outlettype" : [ "" ],
									"patching_rect" : [ 565.148134112358093, 97.296296417713165, 151.0, 22.0 ],
									"text" : "param movie_3_dim 10 10"
								}

							}
, 							{
								"box" : 								{
									"id" : "obj-66",
									"maxclass" : "newobj",
									"numinlets" : 0,
									"numoutlets" : 1,
									"outlettype" : [ "" ],
									"patching_rect" : [ 348.403043627738953, 146.3546062707901, 151.0, 22.0 ],
									"text" : "param movie_2_dim 10 10"
								}

							}
, 							{
								"box" : 								{
									"id" : "obj-62",
									"maxclass" : "comment",
									"numinlets" : 1,
									"numoutlets" : 0,
									"patching_rect" : [ 54.814813017845154, 26.148149847984314, 37.0, 20.0 ],
									"text" : "video"
								}

							}
, 							{
								"box" : 								{
									"id" : "obj-11",
									"maxclass" : "newobj",
									"numinlets" : 0,
									"numoutlets" : 1,
									"outlettype" : [ "" ],
									"patching_rect" : [ 102.814813017845154, 146.3546062707901, 151.0, 22.0 ],
									"text" : "param movie_1_dim 10 10"
								}

							}
, 							{
								"box" : 								{
									"id" : "obj-7",
									"maxclass" : "newobj",
									"numinlets" : 0,
									"numoutlets" : 1,
									"outlettype" : [ "" ],
									"patching_rect" : [ 677.000001311302185, 35.555557668209076, 28.0, 22.0 ],
									"text" : "in 4"
								}

							}
, 							{
								"box" : 								{
									"id" : "obj-6",
									"maxclass" : "newobj",
									"numinlets" : 0,
									"numoutlets" : 1,
									"outlettype" : [ "" ],
									"patching_rect" : [ 513.403043627738953, 64.444446265697479, 28.0, 22.0 ],
									"text" : "in 3"
								}

							}
, 							{
								"box" : 								{
									"id" : "obj-1",
									"maxclass" : "newobj",
									"numinlets" : 0,
									"numoutlets" : 1,
									"outlettype" : [ "" ],
									"patching_rect" : [ 54.814813017845154, 48.148149847984314, 28.0, 22.0 ],
									"text" : "in 1"
								}

							}
, 							{
								"box" : 								{
									"id" : "obj-2",
									"maxclass" : "newobj",
									"numinlets" : 0,
									"numoutlets" : 1,
									"outlettype" : [ "" ],
									"patching_rect" : [ 300.403043627738953, 48.148149847984314, 28.0, 22.0 ],
									"text" : "in 2"
								}

							}
, 							{
								"box" : 								{
									"id" : "obj-4",
									"maxclass" : "newobj",
									"numinlets" : 1,
									"numoutlets" : 0,
									"patching_rect" : [ 54.814813017845154, 234.073019027709961, 35.0, 22.0 ],
									"text" : "out 1"
								}

							}
 ],
						"lines" : [ 							{
								"patchline" : 								{
									"destination" : [ "obj-55", 0 ],
									"source" : [ "obj-1", 0 ]
								}

							}
, 							{
								"patchline" : 								{
									"destination" : [ "obj-55", 1 ],
									"source" : [ "obj-11", 0 ]
								}

							}
, 							{
								"patchline" : 								{
									"destination" : [ "obj-3", 0 ],
									"source" : [ "obj-13", 0 ]
								}

							}
, 							{
								"patchline" : 								{
									"destination" : [ "obj-18", 0 ],
									"source" : [ "obj-15", 0 ]
								}

							}
, 							{
								"patchline" : 								{
									"destination" : [ "obj-17", 0 ],
									"source" : [ "obj-16", 0 ]
								}

							}
, 							{
								"patchline" : 								{
									"destination" : [ "obj-18", 1 ],
									"source" : [ "obj-17", 0 ]
								}

							}
, 							{
								"patchline" : 								{
									"destination" : [ "obj-20", 0 ],
									"source" : [ "obj-18", 0 ]
								}

							}
, 							{
								"patchline" : 								{
									"destination" : [ "obj-15", 0 ],
									"order" : 1,
									"source" : [ "obj-19", 0 ]
								}

							}
, 							{
								"patchline" : 								{
									"destination" : [ "obj-16", 0 ],
									"order" : 0,
									"source" : [ "obj-19", 0 ]
								}

							}
, 							{
								"patchline" : 								{
									"destination" : [ "obj-57", 0 ],
									"source" : [ "obj-2", 0 ]
								}

							}
, 							{
								"patchline" : 								{
									"destination" : [ "obj-25", 0 ],
									"source" : [ "obj-20", 0 ]
								}

							}
, 							{
								"patchline" : 								{
									"destination" : [ "obj-23", 0 ],
									"order" : 0,
									"source" : [ "obj-21", 0 ]
								}

							}
, 							{
								"patchline" : 								{
									"destination" : [ "obj-24", 0 ],
									"order" : 1,
									"source" : [ "obj-21", 0 ]
								}

							}
, 							{
								"patchline" : 								{
									"destination" : [ "obj-17", 1 ],
									"source" : [ "obj-22", 0 ]
								}

							}
, 							{
								"patchline" : 								{
									"destination" : [ "obj-22", 0 ],
									"source" : [ "obj-23", 0 ]
								}

							}
, 							{
								"patchline" : 								{
									"destination" : [ "obj-22", 1 ],
									"source" : [ "obj-24", 0 ]
								}

							}
, 							{
								"patchline" : 								{
									"destination" : [ "obj-13", 0 ],
									"source" : [ "obj-25", 0 ]
								}

							}
, 							{
								"patchline" : 								{
									"destination" : [ "obj-4", 0 ],
									"source" : [ "obj-55", 0 ]
								}

							}
, 							{
								"patchline" : 								{
									"destination" : [ "obj-4", 0 ],
									"source" : [ "obj-57", 0 ]
								}

							}
, 							{
								"patchline" : 								{
									"destination" : [ "obj-9", 0 ],
									"source" : [ "obj-6", 0 ]
								}

							}
, 							{
								"patchline" : 								{
									"destination" : [ "obj-57", 1 ],
									"source" : [ "obj-66", 0 ]
								}

							}
, 							{
								"patchline" : 								{
									"destination" : [ "obj-9", 1 ],
									"source" : [ "obj-68", 0 ]
								}

							}
, 							{
								"patchline" : 								{
									"destination" : [ "obj-4", 0 ],
									"source" : [ "obj-9", 0 ]
								}

							}
 ]
					}
,
					"patching_rect" : [ 190.0, 315.0, 80.0, 22.0 ],
					"text" : "jit.gl.pix black"
				}

			}
, 			{
				"box" : 				{
					"id" : "obj-37",
					"maxclass" : "newobj",
					"numinlets" : 1,
					"numoutlets" : 1,
					"outlettype" : [ "" ],
					"patching_rect" : [ 350.0, 223.0, 127.0, 22.0 ],
					"text" : "prepend movie_1_dim"
				}

			}
, 			{
				"box" : 				{
					"id" : "obj-69",
					"maxclass" : "newobj",
					"numinlets" : 1,
					"numoutlets" : 1,
					"outlettype" : [ "bang" ],
					"patcher" : 					{
						"fileversion" : 1,
						"appversion" : 						{
							"major" : 8,
							"minor" : 1,
							"revision" : 11,
							"architecture" : "x64",
							"modernui" : 1
						}
,
						"classnamespace" : "box",
						"rect" : [ 59.0, 104.0, 640.0, 480.0 ],
						"bglocked" : 0,
						"openinpresentation" : 0,
						"default_fontsize" : 12.0,
						"default_fontface" : 0,
						"default_fontname" : "Arial",
						"gridonopen" : 1,
						"gridsize" : [ 15.0, 15.0 ],
						"gridsnaponopen" : 1,
						"objectsnaponopen" : 1,
						"statusbarvisible" : 2,
						"toolbarvisible" : 1,
						"lefttoolbarpinned" : 0,
						"toptoolbarpinned" : 0,
						"righttoolbarpinned" : 0,
						"bottomtoolbarpinned" : 0,
						"toolbars_unpinned_last_save" : 0,
						"tallnewobj" : 0,
						"boxanimatetime" : 200,
						"enablehscroll" : 1,
						"enablevscroll" : 1,
						"devicewidth" : 0.0,
						"description" : "",
						"digest" : "",
						"tags" : "",
						"style" : "",
						"subpatcher_template" : "",
						"assistshowspatchername" : 0,
						"boxes" : [ 							{
								"box" : 								{
									"id" : "obj-65",
									"maxclass" : "newobj",
									"numinlets" : 2,
									"numoutlets" : 2,
									"outlettype" : [ "bang", "" ],
									"patching_rect" : [ 86.0, 129.0, 34.0, 22.0 ],
									"text" : "sel 1"
								}

							}
, 							{
								"box" : 								{
									"id" : "obj-62",
									"maxclass" : "newobj",
									"numinlets" : 2,
									"numoutlets" : 2,
									"outlettype" : [ "", "" ],
									"patching_rect" : [ 50.0, 100.0, 55.0, 22.0 ],
									"text" : "zl slice 1"
								}

							}
, 							{
								"box" : 								{
									"id" : "obj-61",
									"maxclass" : "newobj",
									"numinlets" : 2,
									"numoutlets" : 1,
									"outlettype" : [ "bang" ],
									"patching_rect" : [ 86.0, 158.0, 48.0, 22.0 ],
									"text" : "del 100"
								}

							}
, 							{
								"box" : 								{
									"comment" : "",
									"id" : "obj-67",
									"index" : 1,
									"maxclass" : "inlet",
									"numinlets" : 0,
									"numoutlets" : 1,
									"outlettype" : [ "" ],
									"patching_rect" : [ 50.0, 40.0, 30.0, 30.0 ]
								}

							}
, 							{
								"box" : 								{
									"comment" : "",
									"id" : "obj-68",
									"index" : 1,
									"maxclass" : "outlet",
									"numinlets" : 1,
									"numoutlets" : 0,
									"patching_rect" : [ 86.0, 240.0, 30.0, 30.0 ]
								}

							}
 ],
						"lines" : [ 							{
								"patchline" : 								{
									"destination" : [ "obj-68", 0 ],
									"source" : [ "obj-61", 0 ]
								}

							}
, 							{
								"patchline" : 								{
									"destination" : [ "obj-65", 0 ],
									"source" : [ "obj-62", 1 ]
								}

							}
, 							{
								"patchline" : 								{
									"destination" : [ "obj-61", 0 ],
									"source" : [ "obj-65", 0 ]
								}

							}
, 							{
								"patchline" : 								{
									"destination" : [ "obj-62", 0 ],
									"source" : [ "obj-67", 0 ]
								}

							}
 ]
					}
,
					"patching_rect" : [ 431.0, 174.0, 93.0, 22.0 ],
					"saved_object_attributes" : 					{
						"description" : "",
						"digest" : "",
						"globalpatchername" : "",
						"tags" : ""
					}
,
					"text" : "p triggerGetDim"
				}

			}
, 			{
				"box" : 				{
					"id" : "obj-20",
					"maxclass" : "newobj",
					"numinlets" : 1,
					"numoutlets" : 2,
					"outlettype" : [ "jit_matrix", "" ],
					"patching_rect" : [ 84.0, 358.0, 232.0, 22.0 ],
					"text" : "jit.gl.videoplane black @transform_reset 2"
				}

			}
, 			{
				"box" : 				{
					"id" : "obj-19",
					"maxclass" : "newobj",
					"numinlets" : 2,
					"numoutlets" : 2,
					"outlettype" : [ "jit_gl_texture", "" ],
					"patcher" : 					{
						"fileversion" : 1,
						"appversion" : 						{
							"major" : 8,
							"minor" : 1,
							"revision" : 11,
							"architecture" : "x64",
							"modernui" : 1
						}
,
						"classnamespace" : "jit.gen",
						"rect" : [ 705.0, 314.0, 600.0, 450.0 ],
						"bglocked" : 0,
						"openinpresentation" : 0,
						"default_fontsize" : 12.0,
						"default_fontface" : 0,
						"default_fontname" : "Arial",
						"gridonopen" : 1,
						"gridsize" : [ 15.0, 15.0 ],
						"gridsnaponopen" : 1,
						"objectsnaponopen" : 1,
						"statusbarvisible" : 2,
						"toolbarvisible" : 1,
						"lefttoolbarpinned" : 0,
						"toptoolbarpinned" : 0,
						"righttoolbarpinned" : 0,
						"bottomtoolbarpinned" : 0,
						"toolbars_unpinned_last_save" : 0,
						"tallnewobj" : 0,
						"boxanimatetime" : 200,
						"enablehscroll" : 1,
						"enablevscroll" : 1,
						"devicewidth" : 0.0,
						"description" : "",
						"digest" : "",
						"tags" : "",
						"style" : "",
						"subpatcher_template" : "",
						"assistshowspatchername" : 0,
						"boxes" : [ 							{
								"box" : 								{
									"id" : "obj-1",
									"maxclass" : "newobj",
									"numinlets" : 0,
									"numoutlets" : 1,
									"outlettype" : [ "" ],
									"patching_rect" : [ 50.0, 14.0, 28.0, 22.0 ],
									"text" : "in 1"
								}

							}
, 							{
								"box" : 								{
									"id" : "obj-2",
									"maxclass" : "newobj",
									"numinlets" : 0,
									"numoutlets" : 1,
									"outlettype" : [ "" ],
									"patching_rect" : [ 305.0, 14.0, 28.0, 22.0 ],
									"text" : "in 2"
								}

							}
, 							{
								"box" : 								{
									"id" : "obj-3",
									"maxclass" : "newobj",
									"numinlets" : 2,
									"numoutlets" : 1,
									"outlettype" : [ "" ],
									"patching_rect" : [ 176.0, 149.0, 29.5, 22.0 ],
									"text" : "+"
								}

							}
, 							{
								"box" : 								{
									"id" : "obj-4",
									"maxclass" : "newobj",
									"numinlets" : 1,
									"numoutlets" : 0,
									"patching_rect" : [ 176.0, 418.0, 35.0, 22.0 ],
									"text" : "out 1"
								}

							}
 ],
						"lines" : [ 							{
								"patchline" : 								{
									"destination" : [ "obj-3", 0 ],
									"source" : [ "obj-1", 0 ]
								}

							}
, 							{
								"patchline" : 								{
									"destination" : [ "obj-3", 1 ],
									"source" : [ "obj-2", 0 ]
								}

							}
, 							{
								"patchline" : 								{
									"destination" : [ "obj-4", 0 ],
									"source" : [ "obj-3", 0 ]
								}

							}
 ]
					}
,
					"patching_rect" : [ 84.0, 305.0, 80.0, 22.0 ],
					"text" : "jit.gl.pix black"
				}

			}
, 			{
				"box" : 				{
					"id" : "obj-18",
					"maxclass" : "newobj",
					"numinlets" : 1,
					"numoutlets" : 2,
					"outlettype" : [ "jit_gl_texture", "" ],
					"patching_rect" : [ 84.0, 245.0, 234.0, 22.0 ],
					"text" : "jit.gl.texture black @adapt 0 @type float32"
				}

			}
, 			{
				"box" : 				{
					"id" : "obj-17",
					"maxclass" : "newobj",
					"numinlets" : 1,
					"numoutlets" : 1,
					"outlettype" : [ "" ],
					"patching_rect" : [ 233.0, 174.0, 75.0, 22.0 ],
					"text" : "prepend dim"
				}

			}
, 			{
				"box" : 				{
					"id" : "obj-16",
					"maxclass" : "newobj",
					"numinlets" : 0,
					"numoutlets" : 1,
					"outlettype" : [ "" ],
					"patching_rect" : [ 233.0, 150.0, 79.0, 22.0 ],
					"text" : "r windowSize"
				}

			}
, 			{
				"box" : 				{
					"id" : "obj-13",
					"maxclass" : "message",
					"numinlets" : 2,
					"numoutlets" : 1,
					"outlettype" : [ "" ],
					"patching_rect" : [ 350.0, 174.0, 79.0, 22.0 ],
					"text" : "1280 720"
				}

			}
, 			{
				"box" : 				{
					"id" : "obj-10",
					"maxclass" : "newobj",
					"numinlets" : 3,
					"numoutlets" : 3,
					"outlettype" : [ "", "", "" ],
					"patching_rect" : [ 350.0, 144.0, 86.0, 22.0 ],
					"text" : "route dim read"
				}

			}
, 			{
				"box" : 				{
					"id" : "obj-4",
					"maxclass" : "message",
					"numinlets" : 2,
					"numoutlets" : 1,
					"outlettype" : [ "" ],
					"patching_rect" : [ 119.0, 79.0, 45.0, 22.0 ],
					"text" : "getdim"
				}

			}
, 			{
				"box" : 				{
					"id" : "obj-31",
					"maxclass" : "newobj",
					"numinlets" : 1,
					"numoutlets" : 1,
					"outlettype" : [ "bang" ],
					"patching_rect" : [ 34.0, 35.0, 58.0, 22.0 ],
					"text" : "loadbang"
				}

			}
, 			{
				"box" : 				{
					"id" : "obj-15",
					"maxclass" : "message",
					"numinlets" : 2,
					"numoutlets" : 1,
					"outlettype" : [ "" ],
					"patching_rect" : [ 84.0, 79.0, 35.0, 22.0 ],
					"text" : "open"
				}

			}
, 			{
				"box" : 				{
					"id" : "obj-11",
					"maxclass" : "newobj",
					"numinlets" : 1,
					"numoutlets" : 2,
					"outlettype" : [ "jit_gl_texture", "" ],
					"patching_rect" : [ 84.0, 103.0, 285.0, 22.0 ],
					"text" : "jit.grab @output_texture 1 @adapt 1 @drawto black"
				}

			}
, 			{
				"box" : 				{
					"id" : "obj-8",
					"maxclass" : "toggle",
					"numinlets" : 1,
					"numoutlets" : 1,
					"outlettype" : [ "int" ],
					"parameter_enable" : 0,
					"patching_rect" : [ 34.0, 103.0, 24.0, 24.0 ]
				}

			}
, 			{
				"box" : 				{
					"id" : "obj-2",
					"maxclass" : "newobj",
					"numinlets" : 1,
					"numoutlets" : 3,
					"outlettype" : [ "jit_matrix", "bang", "" ],
					"patching_rect" : [ 132.0, 17.0, 331.0, 22.0 ],
					"text" : "jit.world black @floating 1 @esc_fullscreen 1 @size 640 360"
				}

			}
 ],
		"lines" : [ 			{
				"patchline" : 				{
					"destination" : [ "obj-13", 1 ],
					"order" : 0,
					"source" : [ "obj-10", 0 ]
				}

			}
, 			{
				"patchline" : 				{
					"destination" : [ "obj-13", 0 ],
					"order" : 1,
					"source" : [ "obj-10", 0 ]
				}

			}
, 			{
				"patchline" : 				{
					"destination" : [ "obj-69", 0 ],
					"source" : [ "obj-10", 1 ]
				}

			}
, 			{
				"patchline" : 				{
					"destination" : [ "obj-10", 0 ],
					"source" : [ "obj-11", 1 ]
				}

			}
, 			{
				"patchline" : 				{
					"destination" : [ "obj-18", 0 ],
					"source" : [ "obj-11", 0 ]
				}

			}
, 			{
				"patchline" : 				{
					"destination" : [ "obj-37", 0 ],
					"source" : [ "obj-13", 0 ]
				}

			}
, 			{
				"patchline" : 				{
					"destination" : [ "obj-11", 0 ],
					"source" : [ "obj-15", 0 ]
				}

			}
, 			{
				"patchline" : 				{
					"destination" : [ "obj-17", 0 ],
					"source" : [ "obj-16", 0 ]
				}

			}
, 			{
				"patchline" : 				{
					"destination" : [ "obj-18", 0 ],
					"source" : [ "obj-17", 0 ]
				}

			}
, 			{
				"patchline" : 				{
					"destination" : [ "obj-19", 0 ],
					"source" : [ "obj-18", 0 ]
				}

			}
, 			{
				"patchline" : 				{
					"destination" : [ "obj-20", 0 ],
					"source" : [ "obj-19", 0 ]
				}

			}
, 			{
				"patchline" : 				{
					"destination" : [ "obj-15", 0 ],
					"order" : 0,
					"source" : [ "obj-31", 0 ]
				}

			}
, 			{
				"patchline" : 				{
					"destination" : [ "obj-8", 0 ],
					"order" : 1,
					"source" : [ "obj-31", 0 ]
				}

			}
, 			{
				"patchline" : 				{
					"destination" : [ "obj-19", 0 ],
					"source" : [ "obj-37", 0 ]
				}

			}
, 			{
				"patchline" : 				{
					"destination" : [ "obj-11", 0 ],
					"source" : [ "obj-4", 0 ]
				}

			}
, 			{
				"patchline" : 				{
					"destination" : [ "obj-4", 0 ],
					"midpoints" : [ 440.5, 215.0, 537.0, 215.0, 537.0, 66.0, 128.5, 66.0 ],
					"source" : [ "obj-69", 0 ]
				}

			}
 ],
		"parameters" : 		{
			"parameterbanks" : 			{

			}
,
			"inherited_shortname" : 1
		}
,
		"dependency_cache" : [  ],
		"autosave" : 0
	}

}
