{
	"patcher" : 	{
		"fileversion" : 1,
		"appversion" : 		{
			"major" : 8,
			"minor" : 1,
			"revision" : 11,
			"architecture" : "x64",
			"modernui" : 1
		}
,
		"classnamespace" : "box",
		"rect" : [ 432.0, 202.0, 510.0, 637.0 ],
		"bglocked" : 0,
		"openinpresentation" : 0,
		"default_fontsize" : 12.0,
		"default_fontface" : 0,
		"default_fontname" : "Arial",
		"gridonopen" : 1,
		"gridsize" : [ 15.0, 15.0 ],
		"gridsnaponopen" : 1,
		"objectsnaponopen" : 1,
		"statusbarvisible" : 2,
		"toolbarvisible" : 1,
		"lefttoolbarpinned" : 0,
		"toptoolbarpinned" : 0,
		"righttoolbarpinned" : 0,
		"bottomtoolbarpinned" : 0,
		"toolbars_unpinned_last_save" : 0,
		"tallnewobj" : 0,
		"boxanimatetime" : 200,
		"enablehscroll" : 1,
		"enablevscroll" : 1,
		"devicewidth" : 0.0,
		"description" : "",
		"digest" : "",
		"tags" : "",
		"style" : "",
		"subpatcher_template" : "",
		"assistshowspatchername" : 0,
		"boxes" : [ 			{
				"box" : 				{
					"id" : "obj-47",
					"maxclass" : "newobj",
					"numinlets" : 1,
					"numoutlets" : 1,
					"outlettype" : [ "" ],
					"patching_rect" : [ 160.0, 513.0, 87.0, 22.0 ],
					"text" : "loadmess start"
				}

			}
, 			{
				"box" : 				{
					"id" : "obj-46",
					"maxclass" : "ezdac~",
					"numinlets" : 2,
					"numoutlets" : 0,
					"patching_rect" : [ 72.0, 552.0, 45.0, 45.0 ]
				}

			}
, 			{
				"box" : 				{
					"id" : "obj-45",
					"linecount" : 4,
					"maxclass" : "comment",
					"numinlets" : 1,
					"numoutlets" : 0,
					"patching_rect" : [ 175.25, 41.625, 229.0, 60.0 ],
					"text" : "recieve data relevant to demographic assigned to this computer and route depending on what the data is refering to (new case, death rate, reset)"
				}

			}
, 			{
				"box" : 				{
					"id" : "obj-43",
					"maxclass" : "newobj",
					"numinlets" : 1,
					"numoutlets" : 1,
					"outlettype" : [ "" ],
					"patching_rect" : [ 72.0, 51.0, 97.0, 22.0 ],
					"style" : "newobjBlue",
					"text" : "udpreceive 7005"
				}

			}
, 			{
				"box" : 				{
					"id" : "obj-35",
					"maxclass" : "newobj",
					"numinlets" : 3,
					"numoutlets" : 3,
					"outlettype" : [ "", "", "" ],
					"patching_rect" : [ 72.0, 75.0, 99.0, 22.0 ],
					"text" : "route note cod_5"
				}

			}
, 			{
				"box" : 				{
					"id" : "obj-5",
					"maxclass" : "comment",
					"numinlets" : 1,
					"numoutlets" : 0,
					"patching_rect" : [ 441.25, 291.0, 43.0, 20.0 ],
					"text" : "<reset"
				}

			}
, 			{
				"box" : 				{
					"id" : "obj-2",
					"linecount" : 2,
					"maxclass" : "comment",
					"numinlets" : 1,
					"numoutlets" : 0,
					"patching_rect" : [ 171.0, 221.0, 58.0, 33.0 ],
					"text" : "<chance of death"
				}

			}
, 			{
				"box" : 				{
					"id" : "obj-22",
					"linecount" : 2,
					"maxclass" : "comment",
					"numinlets" : 1,
					"numoutlets" : 0,
					"patching_rect" : [ 160.0, 475.0, 145.0, 33.0 ],
					"text" : "<downsample generated note at a rate = #deaths"
				}

			}
, 			{
				"box" : 				{
					"id" : "obj-20",
					"linecount" : 3,
					"maxclass" : "comment",
					"numinlets" : 1,
					"numoutlets" : 0,
					"patching_rect" : [ 203.0, 331.625, 102.0, 47.0 ],
					"text" : "generate note with internal midi device (piano)"
				}

			}
, 			{
				"box" : 				{
					"id" : "obj-17",
					"linecount" : 9,
					"maxclass" : "comment",
					"numinlets" : 1,
					"numoutlets" : 0,
					"patching_rect" : [ 246.0, 139.625, 115.0, 127.0 ],
					"text" : "recieve new cases and use extracted data to determine if case results in death. if so then record it as such and lower note to be generated by a semitone"
				}

			}
, 			{
				"box" : 				{
					"id" : "obj-14",
					"maxclass" : "newobj",
					"numinlets" : 3,
					"numoutlets" : 2,
					"outlettype" : [ "signal", "signal" ],
					"patcher" : 					{
						"fileversion" : 1,
						"appversion" : 						{
							"major" : 8,
							"minor" : 1,
							"revision" : 11,
							"architecture" : "x64",
							"modernui" : 1
						}
,
						"classnamespace" : "box",
						"rect" : [ 237.0, 126.0, 243.0, 258.0 ],
						"bglocked" : 0,
						"openinpresentation" : 0,
						"default_fontsize" : 12.0,
						"default_fontface" : 0,
						"default_fontname" : "Arial",
						"gridonopen" : 1,
						"gridsize" : [ 15.0, 15.0 ],
						"gridsnaponopen" : 1,
						"objectsnaponopen" : 1,
						"statusbarvisible" : 2,
						"toolbarvisible" : 1,
						"lefttoolbarpinned" : 0,
						"toptoolbarpinned" : 0,
						"righttoolbarpinned" : 0,
						"bottomtoolbarpinned" : 0,
						"toolbars_unpinned_last_save" : 0,
						"tallnewobj" : 0,
						"boxanimatetime" : 200,
						"enablehscroll" : 1,
						"enablevscroll" : 1,
						"devicewidth" : 0.0,
						"description" : "",
						"digest" : "",
						"tags" : "",
						"style" : "",
						"subpatcher_template" : "",
						"assistshowspatchername" : 0,
						"boxes" : [ 							{
								"box" : 								{
									"comment" : "",
									"id" : "obj-7",
									"index" : 3,
									"maxclass" : "inlet",
									"numinlets" : 0,
									"numoutlets" : 1,
									"outlettype" : [ "" ],
									"patching_rect" : [ 169.0, 60.0, 30.0, 30.0 ]
								}

							}
, 							{
								"box" : 								{
									"id" : "obj-6",
									"maxclass" : "newobj",
									"numinlets" : 2,
									"numoutlets" : 1,
									"outlettype" : [ "signal" ],
									"patching_rect" : [ 114.0, 126.0, 74.0, 22.0 ],
									"text" : "downsamp~"
								}

							}
, 							{
								"box" : 								{
									"comment" : "",
									"id" : "obj-5",
									"index" : 2,
									"maxclass" : "outlet",
									"numinlets" : 1,
									"numoutlets" : 0,
									"patching_rect" : [ 114.0, 181.0, 30.0, 30.0 ]
								}

							}
, 							{
								"box" : 								{
									"comment" : "",
									"id" : "obj-4",
									"index" : 1,
									"maxclass" : "outlet",
									"numinlets" : 1,
									"numoutlets" : 0,
									"patching_rect" : [ 38.0, 181.0, 30.0, 30.0 ]
								}

							}
, 							{
								"box" : 								{
									"comment" : "",
									"id" : "obj-3",
									"index" : 2,
									"maxclass" : "inlet",
									"numinlets" : 0,
									"numoutlets" : 1,
									"outlettype" : [ "signal" ],
									"patching_rect" : [ 114.0, 60.0, 30.0, 30.0 ]
								}

							}
, 							{
								"box" : 								{
									"comment" : "",
									"id" : "obj-2",
									"index" : 1,
									"maxclass" : "inlet",
									"numinlets" : 0,
									"numoutlets" : 1,
									"outlettype" : [ "signal" ],
									"patching_rect" : [ 38.0, 60.0, 30.0, 30.0 ]
								}

							}
, 							{
								"box" : 								{
									"id" : "obj-1",
									"maxclass" : "newobj",
									"numinlets" : 2,
									"numoutlets" : 1,
									"outlettype" : [ "signal" ],
									"patching_rect" : [ 38.0, 126.0, 74.0, 22.0 ],
									"text" : "downsamp~"
								}

							}
 ],
						"lines" : [ 							{
								"patchline" : 								{
									"destination" : [ "obj-4", 0 ],
									"source" : [ "obj-1", 0 ]
								}

							}
, 							{
								"patchline" : 								{
									"destination" : [ "obj-1", 0 ],
									"source" : [ "obj-2", 0 ]
								}

							}
, 							{
								"patchline" : 								{
									"destination" : [ "obj-6", 0 ],
									"source" : [ "obj-3", 0 ]
								}

							}
, 							{
								"patchline" : 								{
									"destination" : [ "obj-5", 0 ],
									"source" : [ "obj-6", 0 ]
								}

							}
, 							{
								"patchline" : 								{
									"destination" : [ "obj-1", 1 ],
									"order" : 1,
									"source" : [ "obj-7", 0 ]
								}

							}
, 							{
								"patchline" : 								{
									"destination" : [ "obj-6", 1 ],
									"order" : 0,
									"source" : [ "obj-7", 0 ]
								}

							}
 ]
					}
,
					"patching_rect" : [ 72.0, 475.0, 86.0, 22.0 ],
					"saved_object_attributes" : 					{
						"description" : "",
						"digest" : "",
						"globalpatchername" : "",
						"tags" : ""
					}
,
					"text" : "p downsample"
				}

			}
, 			{
				"box" : 				{
					"autosave" : 1,
					"bgmode" : 0,
					"border" : 0,
					"clickthrough" : 0,
					"id" : "obj-12",
					"maxclass" : "newobj",
					"numinlets" : 2,
					"numoutlets" : 8,
					"offset" : [ 0.0, 0.0 ],
					"outlettype" : [ "signal", "signal", "", "list", "int", "", "", "" ],
					"patching_rect" : [ 72.0, 431.0, 162.0, 22.0 ],
					"save" : [ "#N", "vst~", "loaduniqueid", 0, "DLSMusicDevice.auinfo", ";" ],
					"saved_attribute_attributes" : 					{
						"valueof" : 						{
							"parameter_invisible" : 1,
							"parameter_longname" : "vst~[4]",
							"parameter_shortname" : "vst~[4]",
							"parameter_type" : 3
						}

					}
,
					"saved_object_attributes" : 					{
						"parameter_enable" : 1,
						"parameter_mappable" : 0
					}
,
					"snapshot" : 					{
						"filetype" : "C74Snapshot",
						"version" : 2,
						"minorversion" : 0,
						"name" : "snapshotlist",
						"origin" : "vst~",
						"type" : "list",
						"subtype" : "Undefined",
						"embed" : 1,
						"snapshot" : 						{
							"pluginname" : "DLSMusicDevice.auinfo",
							"plugindisplayname" : "DLSMusicDevice",
							"pluginsavedname" : "",
							"pluginsaveduniqueid" : 1684828960,
							"version" : 1,
							"isbank" : 0,
							"isbase64" : 1,
							"blob" : "912.hAGaoMGcv.S2AHv.DTfAGfPBJr.CM3vCPDADRLAEUXQFZrAViAWcsv1agQFUtEVakckckI2bo8laeAwD0MWYsjlazUlbtEFasHWY1Ulbh4EYoM2ZsLGcxUVXsklam4kbk4FYkIWKwUWXrkFc4QEc4AWYTQVXzEFWsEla0YVXiQWcxUlbeAwClkFak0hbkYVYxUlaiU1bWMWchQWdvUFUBElaqwUYrUVak4Fcs3VXsUlH.....fUUtQWZzwVYjAA.PD.D+IQX00VcOAAI..............v...............P..........H......RDFbvwVzWfwVyIVKlkFak0hbkY1WPP0KSk2bzUVauvTZhIWXxk2KC8Vav8lak4Fcy8xPuIWYAUGYo8lKi8Vav8lak4FcuLzatQWYtQ2buHUYy8VcxMVYy8xYy8UZtMGcxUWak4Fcy4BYrMmDjw1bf7TDAfJ.....AfJ.B...LzTXiklaz81bnABRDA........................fPDAP.+++++KwYy8UZtMGcxUWak4Fcy4BYrMG...........................................................v+++++................+++++C..J.xX0A................PBRU1buUmbiU1b..f..T0K5LUdyQWYsoCSoIlbgIWd5LzasA2atUlazMmNC8lbkETcjk1atL1asA2atUlazoyPu4Fck4FcyoiTkM2a0I2XkMmNmM2Wo41bzIWcsUlazMmKjw1b..fC.XB.R.vY.LG.eAPZ.3F.yA.c.HG.0APa.TF.tA.c.LG.t..Y.vF.yAvC.nA.L.PS.DF.iAPZ.3F.zAva.LG.nA.H.fD.DAfD.L0T4MGck01KLklXxElb48xPu0Fbu4VYtQ2buLzaxUVP0QVZu4xXu0Fbu4VYtQ2KC8lazUlazM2KRU1buUmbiU1bub1beklayQmb00VYtQ2btPFayA..S.P.u.v++C..QyQGQIizd7AHgDELQEiVyQWYxU1afzVZ3YUctU2bkQF.H.vH.vB.w.PN.7D.dAPa.HG.2A.g.XI.dBvn..K.0Bfu..L.BC.w.jL.vCP8.fe.DDvVA.1.LLvCCDw.VL.FCnw.k........HP..........HB..................L.K"
						}
,
						"snapshotlist" : 						{
							"current_snapshot" : 0,
							"entries" : [ 								{
									"filetype" : "C74Snapshot",
									"version" : 2,
									"minorversion" : 0,
									"name" : "DLSMusicDevice",
									"origin" : "DLSMusicDevice.auinfo",
									"type" : "AudioUnit",
									"subtype" : "Instrument",
									"embed" : 0,
									"snapshot" : 									{
										"pluginname" : "DLSMusicDevice.auinfo",
										"plugindisplayname" : "DLSMusicDevice",
										"pluginsavedname" : "",
										"pluginsaveduniqueid" : 1684828960,
										"version" : 1,
										"isbank" : 0,
										"isbase64" : 1,
										"blob" : "912.hAGaoMGcv.S2AHv.DTfAGfPBJr.CM3vCPDADRLAEUXQFZrAViAWcsv1agQFUtEVakckckI2bo8laeAwD0MWYsjlazUlbtEFasHWY1Ulbh4EYoM2ZsLGcxUVXsklam4kbk4FYkIWKwUWXrkFc4QEc4AWYTQVXzEFWsEla0YVXiQWcxUlbeAwClkFak0hbkYVYxUlaiU1bWMWchQWdvUFUBElaqwUYrUVak4Fcs3VXsUlH.....fUUtQWZzwVYjAA.PD.D+IQX00VcOAAI..............v...............P..........H......RDFbvwVzWfwVyIVKlkFak0hbkY1WPP0KSk2bzUVauvTZhIWXxk2KC8Vav8lak4Fcy8xPuIWYAUGYo8lKi8Vav8lak4FcuLzatQWYtQ2buHUYy8VcxMVYy8xYy8UZtMGcxUWak4Fcy4BYrMmDjw1bf7TDAfJ.....AfJ.B...LzTXiklaz81bnABRDA........................fPDAP.+++++KwYy8UZtMGcxUWak4Fcy4BYrMG...........................................................v+++++................+++++C..J.xX0A................PBRU1buUmbiU1b..f..T0K5LUdyQWYsoCSoIlbgIWd5LzasA2atUlazMmNC8lbkETcjk1atL1asA2atUlazoyPu4Fck4FcyoiTkM2a0I2XkMmNmM2Wo41bzIWcsUlazMmKjw1b..fC.XB.R.vY.LG.eAPZ.3F.yA.c.HG.0APa.TF.tA.c.LG.t..Y.vF.yAvC.nA.L.PS.DF.iAPZ.3F.zAva.LG.nA.H.fD.DAfD.L0T4MGck01KLklXxElb48xPu0Fbu4VYtQ2buLzaxUVP0QVZu4xXu0Fbu4VYtQ2KC8lazUlazM2KRU1buUmbiU1bub1beklayQmb00VYtQ2btPFayA..S.P.u.v++C..QyQGQIizd7AHgDELQEiVyQWYxU1afzVZ3YUctU2bkQF.H.vH.vB.w.PN.7D.dAPa.HG.2A.g.XI.dBvn..K.0Bfu..L.BC.w.jL.vCP8.fe.DDvVA.1.LLvCCDw.VL.FCnw.k........HP..........HB..................L.K"
									}
,
									"fileref" : 									{
										"name" : "DLSMusicDevice",
										"filename" : "DLSMusicDevice_20211102_4.maxsnap",
										"filepath" : "~/Documents/Max 8/Snapshots",
										"filepos" : -1,
										"snapshotfileid" : "f038062df7e5b3314d84b0b3427776d8"
									}

								}
, 								{
									"filetype" : "C74Snapshot",
									"version" : 2,
									"minorversion" : 0,
									"name" : "DLSMusicDevice",
									"origin" : "DLSMusicDevice.auinfo",
									"type" : "AudioUnit",
									"subtype" : "Instrument",
									"embed" : 0,
									"fileref" : 									{
										"name" : "DLSMusicDevice",
										"filename" : "DLSMusicDevice.maxsnap",
										"filepath" : "~/Documents/Max 8/Snapshots",
										"filepos" : -1,
										"snapshotfileid" : "e059cd28ccc334f42d4c47d41210efa7"
									}

								}
, 								{
									"filetype" : "C74Snapshot",
									"version" : 2,
									"minorversion" : 0,
									"name" : "DLSMusicDevice",
									"origin" : "DLSMusicDevice.auinfo",
									"type" : "AudioUnit",
									"subtype" : "Instrument",
									"embed" : 0,
									"fileref" : 									{
										"name" : "DLSMusicDevice",
										"filename" : "DLSMusicDevice_20211102.maxsnap",
										"filepath" : "~/Documents/Max 8/Snapshots",
										"filepos" : -1,
										"snapshotfileid" : "2de4a949e60007af21e6687c75cbb1e9"
									}

								}
, 								{
									"filetype" : "C74Snapshot",
									"version" : 2,
									"minorversion" : 0,
									"name" : "DLSMusicDevice",
									"origin" : "DLSMusicDevice.auinfo",
									"type" : "AudioUnit",
									"subtype" : "Instrument",
									"embed" : 0,
									"fileref" : 									{
										"name" : "DLSMusicDevice",
										"filename" : "DLSMusicDevice_20211102_1.maxsnap",
										"filepath" : "~/Documents/Max 8/Snapshots",
										"filepos" : -1,
										"snapshotfileid" : "ffb72f205a915955ab4043b6b02895c5"
									}

								}
, 								{
									"filetype" : "C74Snapshot",
									"version" : 2,
									"minorversion" : 0,
									"name" : "DLSMusicDevice",
									"origin" : "DLSMusicDevice.auinfo",
									"type" : "AudioUnit",
									"subtype" : "Instrument",
									"embed" : 0,
									"fileref" : 									{
										"name" : "DLSMusicDevice",
										"filename" : "DLSMusicDevice_20211102_2.maxsnap",
										"filepath" : "~/Documents/Max 8/Snapshots",
										"filepos" : -1,
										"snapshotfileid" : "4091ef9d4d8fa6ce13b45dd607a62c61"
									}

								}
, 								{
									"filetype" : "C74Snapshot",
									"version" : 2,
									"minorversion" : 0,
									"name" : "DLSMusicDevice",
									"origin" : "DLSMusicDevice.auinfo",
									"type" : "AudioUnit",
									"subtype" : "Instrument",
									"embed" : 0,
									"fileref" : 									{
										"name" : "DLSMusicDevice",
										"filename" : "DLSMusicDevice_20211102_3.maxsnap",
										"filepath" : "~/Documents/Max 8/Snapshots",
										"filepos" : -1,
										"snapshotfileid" : "c7bada71ef961417d97798011f3ef8b4"
									}

								}
 ]
						}

					}
,
					"text" : "vst~ DLSMusicDevice.auinfo",
					"varname" : "vst~[1]",
					"viewvisibility" : 0
				}

			}
, 			{
				"box" : 				{
					"id" : "obj-9",
					"maxclass" : "newobj",
					"numinlets" : 7,
					"numoutlets" : 2,
					"outlettype" : [ "int", "" ],
					"patching_rect" : [ 72.0, 401.0, 82.0, 22.0 ],
					"text" : "midiformat"
				}

			}
, 			{
				"box" : 				{
					"fontname" : "Arial",
					"fontsize" : 13.0,
					"id" : "obj-66",
					"maxclass" : "newobj",
					"numinlets" : 2,
					"numoutlets" : 1,
					"outlettype" : [ "" ],
					"patching_rect" : [ 72.0, 376.0, 32.5, 23.0 ],
					"text" : "join"
				}

			}
, 			{
				"box" : 				{
					"fontname" : "Arial",
					"fontsize" : 13.0,
					"id" : "obj-67",
					"maxclass" : "newobj",
					"numinlets" : 3,
					"numoutlets" : 2,
					"outlettype" : [ "float", "float" ],
					"patching_rect" : [ 72.0, 342.0, 116.0, 23.0 ],
					"text" : "makenote 60 5000"
				}

			}
, 			{
				"box" : 				{
					"id" : "obj-24",
					"maxclass" : "comment",
					"numinlets" : 1,
					"numoutlets" : 0,
					"patching_rect" : [ 394.0, 390.0, 61.0, 20.0 ],
					"text" : "^#deaths"
				}

			}
, 			{
				"box" : 				{
					"id" : "obj-23",
					"maxclass" : "comment",
					"numinlets" : 1,
					"numoutlets" : 0,
					"patching_rect" : [ 315.25, 390.0, 61.0, 20.0 ],
					"text" : "^#cases"
				}

			}
, 			{
				"box" : 				{
					"id" : "obj-13",
					"maxclass" : "number",
					"numinlets" : 1,
					"numoutlets" : 2,
					"outlettype" : [ "", "bang" ],
					"parameter_enable" : 0,
					"patching_rect" : [ 119.25, 221.0, 50.0, 22.0 ]
				}

			}
, 			{
				"box" : 				{
					"id" : "obj-10",
					"maxclass" : "number",
					"numinlets" : 1,
					"numoutlets" : 2,
					"outlettype" : [ "", "bang" ],
					"parameter_enable" : 0,
					"patching_rect" : [ 378.25, 366.0, 50.0, 22.0 ]
				}

			}
, 			{
				"box" : 				{
					"id" : "obj-6",
					"maxclass" : "number",
					"numinlets" : 1,
					"numoutlets" : 2,
					"outlettype" : [ "", "bang" ],
					"parameter_enable" : 0,
					"patching_rect" : [ 315.25, 366.0, 50.0, 22.0 ]
				}

			}
, 			{
				"box" : 				{
					"id" : "obj-76",
					"maxclass" : "message",
					"numinlets" : 2,
					"numoutlets" : 1,
					"outlettype" : [ "" ],
					"patching_rect" : [ 409.75, 291.0, 29.5, 22.0 ],
					"text" : "0"
				}

			}
, 			{
				"box" : 				{
					"id" : "obj-71",
					"maxclass" : "newobj",
					"numinlets" : 5,
					"numoutlets" : 4,
					"outlettype" : [ "int", "", "", "int" ],
					"patching_rect" : [ 378.25, 342.0, 61.0, 22.0 ],
					"text" : "counter"
				}

			}
, 			{
				"box" : 				{
					"id" : "obj-68",
					"maxclass" : "newobj",
					"numinlets" : 5,
					"numoutlets" : 4,
					"outlettype" : [ "int", "", "", "int" ],
					"patching_rect" : [ 315.25, 342.0, 61.0, 22.0 ],
					"text" : "counter"
				}

			}
, 			{
				"box" : 				{
					"id" : "obj-65",
					"maxclass" : "newobj",
					"numinlets" : 2,
					"numoutlets" : 2,
					"outlettype" : [ "bang", "" ],
					"patching_rect" : [ 103.5, 282.0, 34.0, 22.0 ],
					"text" : "sel 0"
				}

			}
, 			{
				"box" : 				{
					"id" : "obj-63",
					"maxclass" : "button",
					"numinlets" : 1,
					"numoutlets" : 1,
					"outlettype" : [ "bang" ],
					"parameter_enable" : 0,
					"patching_rect" : [ 103.5, 159.0, 24.0, 24.0 ]
				}

			}
, 			{
				"box" : 				{
					"id" : "obj-50",
					"maxclass" : "newobj",
					"numinlets" : 2,
					"numoutlets" : 1,
					"outlettype" : [ "int" ],
					"patching_rect" : [ 72.0, 282.0, 29.5, 22.0 ],
					"text" : "- 0"
				}

			}
, 			{
				"box" : 				{
					"id" : "obj-8",
					"maxclass" : "newobj",
					"numinlets" : 2,
					"numoutlets" : 1,
					"outlettype" : [ "int" ],
					"patching_rect" : [ 103.5, 245.0, 34.5, 22.0 ],
					"text" : "< 0"
				}

			}
, 			{
				"box" : 				{
					"id" : "obj-3",
					"maxclass" : "newobj",
					"numinlets" : 2,
					"numoutlets" : 1,
					"outlettype" : [ "int" ],
					"patching_rect" : [ 103.5, 185.0, 86.0, 22.0 ],
					"text" : "random 10000"
				}

			}
, 			{
				"box" : 				{
					"angle" : 270.0,
					"background" : 1,
					"bgcolor" : [ 0.8, 0.8, 0.8, 0.0 ],
					"border" : 1,
					"bordercolor" : [ 0.482352941176471, 0.482352941176471, 0.482352941176471, 1.0 ],
					"id" : "obj-44",
					"maxclass" : "panel",
					"mode" : 0,
					"numinlets" : 1,
					"numoutlets" : 0,
					"patching_rect" : [ 63.0, 41.625, 341.25, 79.375 ],
					"proportion" : 0.5,
					"rounded" : 20
				}

			}
, 			{
				"box" : 				{
					"angle" : 270.0,
					"background" : 1,
					"bgcolor" : [ 0.8, 0.8, 0.8, 0.0 ],
					"border" : 1,
					"bordercolor" : [ 0.482352941176471, 0.482352941176471, 0.482352941176471, 1.0 ],
					"id" : "obj-26",
					"maxclass" : "panel",
					"mode" : 0,
					"numinlets" : 1,
					"numoutlets" : 0,
					"patching_rect" : [ 63.0, 139.625, 298.0, 173.375 ],
					"proportion" : 0.5,
					"rounded" : 20
				}

			}
, 			{
				"box" : 				{
					"angle" : 270.0,
					"background" : 1,
					"bgcolor" : [ 0.8, 0.8, 0.8, 0.0 ],
					"border" : 1,
					"bordercolor" : [ 0.482352941176471, 0.482352941176471, 0.482352941176471, 1.0 ],
					"id" : "obj-18",
					"maxclass" : "panel",
					"mode" : 0,
					"numinlets" : 1,
					"numoutlets" : 0,
					"patching_rect" : [ 63.0, 331.625, 242.0, 130.75 ],
					"proportion" : 0.5,
					"rounded" : 20
				}

			}
 ],
		"lines" : [ 			{
				"patchline" : 				{
					"destination" : [ "obj-14", 2 ],
					"midpoints" : [ 387.75, 468.0, 148.5, 468.0 ],
					"source" : [ "obj-10", 0 ]
				}

			}
, 			{
				"patchline" : 				{
					"destination" : [ "obj-14", 1 ],
					"source" : [ "obj-12", 1 ]
				}

			}
, 			{
				"patchline" : 				{
					"destination" : [ "obj-14", 0 ],
					"source" : [ "obj-12", 0 ]
				}

			}
, 			{
				"patchline" : 				{
					"destination" : [ "obj-8", 1 ],
					"source" : [ "obj-13", 0 ]
				}

			}
, 			{
				"patchline" : 				{
					"destination" : [ "obj-46", 1 ],
					"source" : [ "obj-14", 1 ]
				}

			}
, 			{
				"patchline" : 				{
					"destination" : [ "obj-46", 0 ],
					"source" : [ "obj-14", 0 ]
				}

			}
, 			{
				"patchline" : 				{
					"destination" : [ "obj-8", 0 ],
					"source" : [ "obj-3", 0 ]
				}

			}
, 			{
				"patchline" : 				{
					"destination" : [ "obj-13", 0 ],
					"midpoints" : [ 121.5, 152.0, 198.0, 152.0, 198.0, 213.0, 128.75, 213.0 ],
					"source" : [ "obj-35", 1 ]
				}

			}
, 			{
				"patchline" : 				{
					"destination" : [ "obj-50", 0 ],
					"order" : 1,
					"source" : [ "obj-35", 0 ]
				}

			}
, 			{
				"patchline" : 				{
					"destination" : [ "obj-63", 0 ],
					"order" : 0,
					"source" : [ "obj-35", 0 ]
				}

			}
, 			{
				"patchline" : 				{
					"destination" : [ "obj-76", 0 ],
					"midpoints" : [ 161.5, 131.0, 419.25, 131.0 ],
					"source" : [ "obj-35", 2 ]
				}

			}
, 			{
				"patchline" : 				{
					"destination" : [ "obj-35", 0 ],
					"source" : [ "obj-43", 0 ]
				}

			}
, 			{
				"patchline" : 				{
					"destination" : [ "obj-46", 1 ],
					"source" : [ "obj-47", 0 ]
				}

			}
, 			{
				"patchline" : 				{
					"destination" : [ "obj-67", 0 ],
					"source" : [ "obj-50", 0 ]
				}

			}
, 			{
				"patchline" : 				{
					"destination" : [ "obj-3", 0 ],
					"source" : [ "obj-63", 0 ]
				}

			}
, 			{
				"patchline" : 				{
					"destination" : [ "obj-68", 0 ],
					"midpoints" : [ 113.0, 322.0, 324.75, 322.0 ],
					"source" : [ "obj-65", 0 ]
				}

			}
, 			{
				"patchline" : 				{
					"destination" : [ "obj-71", 0 ],
					"midpoints" : [ 128.0, 322.0, 387.75, 322.0 ],
					"source" : [ "obj-65", 1 ]
				}

			}
, 			{
				"patchline" : 				{
					"destination" : [ "obj-9", 0 ],
					"source" : [ "obj-66", 0 ]
				}

			}
, 			{
				"patchline" : 				{
					"destination" : [ "obj-66", 1 ],
					"source" : [ "obj-67", 1 ]
				}

			}
, 			{
				"patchline" : 				{
					"destination" : [ "obj-66", 0 ],
					"midpoints" : [ 81.5, 365.0, 81.5, 365.0 ],
					"source" : [ "obj-67", 0 ]
				}

			}
, 			{
				"patchline" : 				{
					"destination" : [ "obj-6", 0 ],
					"source" : [ "obj-68", 0 ]
				}

			}
, 			{
				"patchline" : 				{
					"destination" : [ "obj-10", 0 ],
					"source" : [ "obj-71", 0 ]
				}

			}
, 			{
				"patchline" : 				{
					"destination" : [ "obj-68", 3 ],
					"order" : 1,
					"source" : [ "obj-76", 0 ]
				}

			}
, 			{
				"patchline" : 				{
					"destination" : [ "obj-71", 3 ],
					"order" : 0,
					"source" : [ "obj-76", 0 ]
				}

			}
, 			{
				"patchline" : 				{
					"destination" : [ "obj-50", 1 ],
					"order" : 1,
					"source" : [ "obj-8", 0 ]
				}

			}
, 			{
				"patchline" : 				{
					"destination" : [ "obj-65", 0 ],
					"order" : 0,
					"source" : [ "obj-8", 0 ]
				}

			}
, 			{
				"patchline" : 				{
					"destination" : [ "obj-12", 0 ],
					"source" : [ "obj-9", 1 ]
				}

			}
 ],
		"parameters" : 		{
			"obj-12" : [ "vst~[4]", "vst~[4]", 0 ],
			"parameterbanks" : 			{

			}
,
			"inherited_shortname" : 1
		}
,
		"dependency_cache" : [ 			{
				"name" : "DLSMusicDevice_20211102_4.maxsnap",
				"bootpath" : "~/Documents/Max 8/Snapshots",
				"patcherrelativepath" : "../../../../../../Documents/Max 8/Snapshots",
				"type" : "mx@s",
				"implicit" : 1
			}
, 			{
				"name" : "DLSMusicDevice.maxsnap",
				"bootpath" : "~/Documents/Max 8/Snapshots",
				"patcherrelativepath" : "../../../../../../Documents/Max 8/Snapshots",
				"type" : "mx@s",
				"implicit" : 1
			}
, 			{
				"name" : "DLSMusicDevice_20211102.maxsnap",
				"bootpath" : "~/Documents/Max 8/Snapshots",
				"patcherrelativepath" : "../../../../../../Documents/Max 8/Snapshots",
				"type" : "mx@s",
				"implicit" : 1
			}
, 			{
				"name" : "DLSMusicDevice_20211102_1.maxsnap",
				"bootpath" : "~/Documents/Max 8/Snapshots",
				"patcherrelativepath" : "../../../../../../Documents/Max 8/Snapshots",
				"type" : "mx@s",
				"implicit" : 1
			}
, 			{
				"name" : "DLSMusicDevice_20211102_2.maxsnap",
				"bootpath" : "~/Documents/Max 8/Snapshots",
				"patcherrelativepath" : "../../../../../../Documents/Max 8/Snapshots",
				"type" : "mx@s",
				"implicit" : 1
			}
, 			{
				"name" : "DLSMusicDevice_20211102_3.maxsnap",
				"bootpath" : "~/Documents/Max 8/Snapshots",
				"patcherrelativepath" : "../../../../../../Documents/Max 8/Snapshots",
				"type" : "mx@s",
				"implicit" : 1
			}
 ],
		"autosave" : 0,
		"styles" : [ 			{
				"name" : "ksliderWhite",
				"default" : 				{
					"color" : [ 1, 1, 1, 1 ]
				}
,
				"parentstyle" : "",
				"multi" : 0
			}
, 			{
				"name" : "newobjBlue-1",
				"default" : 				{
					"accentcolor" : [ 0.317647, 0.654902, 0.976471, 1 ]
				}
,
				"parentstyle" : "",
				"multi" : 0
			}
, 			{
				"name" : "newobjGreen-1",
				"default" : 				{
					"accentcolor" : [ 0, 0.533333, 0.168627, 1 ]
				}
,
				"parentstyle" : "",
				"multi" : 0
			}
, 			{
				"name" : "numberGold-1",
				"default" : 				{
					"accentcolor" : [ 0.764706, 0.592157, 0.101961, 1 ]
				}
,
				"parentstyle" : "",
				"multi" : 0
			}
, 			{
				"name" : "texteditGold",
				"default" : 				{
					"textcolor_inverse" : [ 0.0, 0.0, 0.0, 1.0 ],
					"bgcolor" : [ 0.764706, 0.592157, 0.101961, 0.68 ]
				}
,
				"parentstyle" : "",
				"multi" : 0
			}
 ]
	}

}
